<mxfile host="app.diagrams.net" modified="2023-12-13T07:18:28.471Z" agent="Mozilla/5.0 (Windows NT 10.0; Win64; x64) AppleWebKit/537.36 (KHTML, like Gecko) Chrome/119.0.0.0 Safari/537.36" etag="4MbwnOuGfNp9LDfGxFrO" version="22.1.8" type="github">
  <diagram name="第 1 页" id="dKZDz86R35OM3DqJGsoD">
    <mxGraphModel dx="1434" dy="746" grid="1" gridSize="10" guides="1" tooltips="1" connect="1" arrows="1" fold="1" page="1" pageScale="1" pageWidth="827" pageHeight="1169" math="0" shadow="0">
      <root>
        <mxCell id="0" />
        <mxCell id="1" parent="0" />
        <mxCell id="GA93bmfWpxpTufGlnB7d-1" value="" style="shape=image;verticalLabelPosition=bottom;labelBackgroundColor=default;verticalAlign=top;aspect=fixed;imageAspect=0;image=data:image/jpeg,/9j/4AAQSkZJRgABAQAAAQABAAD/2wBDAAYEBQYFBAYGBQYHBwYIChAKCgkJChQODwwQFxQYGBcUFhYaHSUfGhsjHBYWICwgIyYnKSopGR8tMC0oMCUoKSj/2wBDAQcHBwoIChMKChMoGhYaKCgoKCgoKCgoKCgoKCgoKCgoKCgoKCgoKCgoKCgoKCgoKCgoKCgoKCgoKCgoKCgoKCj/wAARCAHpAm8DASIAAhEBAxEB/8QAHwAAAQUBAQEBAQEAAAAAAAAAAAECAwQFBgcICQoL/8QAtRAAAgEDAwIEAwUFBAQAAAF9AQIDAAQRBRIhMUEGE1FhByJxFDKBkaEII0KxwRVS0fAkM2JyggkKFhcYGRolJicoKSo0NTY3ODk6Q0RFRkdISUpTVFVWV1hZWmNkZWZnaGlqc3R1dnd4eXqDhIWGh4iJipKTlJWWl5iZmqKjpKWmp6ipqrKztLW2t7i5usLDxMXGx8jJytLT1NXW19jZ2uHi4+Tl5ufo6erx8vP09fb3+Pn6/8QAHwEAAwEBAQEBAQEBAQAAAAAAAAECAwQFBgcICQoL/8QAtREAAgECBAQDBAcFBAQAAQJ3AAECAxEEBSExBhJBUQdhcRMiMoEIFEKRobHBCSMzUvAVYnLRChYkNOEl8RcYGRomJygpKjU2Nzg5OkNERUZHSElKU1RVVldYWVpjZGVmZ2hpanN0dXZ3eHl6goOEhYaHiImKkpOUlZaXmJmaoqOkpaanqKmqsrO0tba3uLm6wsPExcbHyMnK0tPU1dbX2Nna4uPk5ebn6Onq8vP09fb3+Pn6/9oADAMBAAIRAxEAPwD6mLfMvBpXbg8Gg/eWlbpQAm72NAbpwadSDpQAxT+/fg/dX+ZpxPzDg96Rf9e/+6v8zTj94fjQAhPtRnjpSk0Z9qAEDcdDTFP79+D91f61ICcUxf8AXv8A7q/1oAcT8y8Ghm46GlP3loY8UAAb2NG72NLRQBEp/wBIfg/dX+ZpxPzLwe9Iv+vf/dX+Zpx+8PxoAC3saA3sacaBQAgPHQ1Grf6Q3B+6P5mpRUY/17f7o/maAFY/MODSk/L0NKfvClPSgBM+xpqngcGn0i9BQBGD+/fg/dX+ZpxPzDg96B/r3/3V/macfvCgBCfZqAfZqdRQAxW4HBpqt+/fg/dX+Zp6dBTV/wBe/wDur/M0AOJ+ZeDSM3HQ049VobpQAhb2NAb2NKaBQBGrf6Q/B+6v8zT8/MOD3pq/69/91f5mnn7w/GgBN3saN3sadmjNADQ3HQ0xW/fvwfur/M1IOlNX/Xv/ALq/zNAClvmXg0M3B4NKfvChvu0AG72NIG46GnUCgCJW/fvwfur/ADNOLfMOD3oX/Xv/ALq/zNOP3l/GgBC3saA3sacaBQAxW4HBpqt+/fg/dX+ZqVegpg/17/7q/wAzQAu7leDQzcdDSnqKU9KAGlvY0BvY040CgCJW/fvwfur/ADNOLfMOD3oX/Xv/ALq/zNOP3hQAhb2NAb2NONAoAaDx0NMU/wCkPwfur/M1IOlNX/Xv/ur/ADNACk/MvBoc/L0NKfvLQ33TQAZ9jSA8Dg06gUARqf37/wC6v8zTifmH40g/17/7q/zNOJ+YfjQAhPtQDx0pSfagH2oARW4HBpit+/fg/dX+ZqRegpi/69/91f5mgB27kcGgt7GlPUUGgCG6/wCPWb/cb+VLD/ql+lJd/wDHrN/uN/Klg5iXHpQAtFFFAH5xYb1H5UYb1H5UuPrRj60Afo4YY9y/u0/75FDQx7f9Wn/fIpzD5l5NK4+U8n86AG+TH/zzT/vkUCGPH+rj/wC+RT8e5/OkA46n86AIlhjE7/u0+6v8I9TTjDHuHyJ/3yKVR+/fr91f5mnEfMOfWgBphj/55x/98ikEMeP9XH/3yKeR7mgD3NADBDFj/Vp/3zTVhi89/wB2n3V/hHvUgHHU/nTVH79+T91e/wBaAAwxbh+7T/vkUphix/q0/wC+acR8y8mgj3NADDDFj/Vp/wB8ilEMX/PNP++RTiOOpoC+5oAiWGITt+7T7o/hHqacYY9w/dp/3yKFH+kPyfuj+Zp5HI5NADfJj/55p/3yKPJj/wCeaf8AfIp233NG33P50AMEMf8AzzT/AL5FNEEXnsfLT7q/wj1NSAe5/Omgfv25P3V7+5oADDFuH7tP++RSmGLH+rT/AL5FOYHcOTQRx1P50AN8mL/nmn/fIpFgiwP3af8AfIqTHufzpAOByfzoAiWGPz3/AHafdX+Eeppxij3D5E7/AMIpVH79+T91e/uacR8w5PfvQA0wx/8APOP/AL5FAhj/AOecf/fIpxH+0fzoA9z+dADFhiwP3af98imrDF57/u0+6v8ACPU1Ko4HJ/OmqP378n7q9/c0AIYYsj92n/fIoMMWP9Wn/fIp5HK8n86CvHU/nQA0wxf880/75FAhi/55p/3yKeV9z+dAX3P50AQiGL7Q58pM7V/hHqacYYty/u07/wAIpQP378n7o7+5pxX5h1796AGGGL/nmn/fIpRDF/zzj/75FOK+5/OgL7n86AGLDFj/AFad/wCEUxYYvtEn7qP7q/wj1NTKvHU/nTFX/SH5P3V7/WgAMMW5f3af98ihoYsf6tP++RTyPmXk/nQw46n86AG+TF/zzT/vkUggiwP3af8AfIqTHufzpAvHU/nQBEsEX2hz5aZ2r/CPU0pgi3L+7Tv/AAilUfv35P3R39zTivzDk9+9ADTDF/zzT/vkUCCL/nmn/fIp5X3P50Bfc/nQAxYYsD92n/fIpqwRee/7tPur/CPU1Kq8dT+dMUfv35P3V7+5oADDFlf3af8AfIoaCLH+rT/vkU8jkcn86CvHU/nQA0wxf880/wC+RQIYv+eaf98inFfc/nQF9z+dAESwx+e/7tPur/CPU04xR7h8id/4RSqP378n7q9/c04j5h170ANMMf8Azzj/AO+RQIY/+ecf/fIpxHufzoA9z+dADFhj28JH/wB8imLDH9ok+RPur/CPU1Mo46mmqP378n7q/wAzQAhgi3L+7T/vkUPBFt/1af8AfIp5HzLyaGHHU0AN8iL/AJ5p/wB8ikEEWB+7j/75FSY9zSAcdTQBEsMYnf8Adp91f4R6mnGGPcPkTv8AwilUfv35P3V/macR8w59aAGmGP8A55x/98igQx/884/++RTiPc0Ae5oAYsMWB+7T/vkU1YYvPf8Adp91f4R6mpVXjqfzpir+/fk/dX+ZoAUwxZH7tP8AvkUjQxY/1af980/HI5NBXjqfzoAguYkW1m2oo+Run0p0IPlLjjgUXX/HrNyfuN/KiEDyl+goAdRRRQB+cdFFFAH6PnO5elI+cHpQW+YcH8qHbg8GgBxz7UgLY7UFvY/lQG46H8qAGjPnv0+6v8zSnOR0pob9+/B+6vb3NOLcjg/lQANnZ2pefakZvl6H8qXd7H8qAEGcdqaufPfp91f604Nx0P5U1W/fvwfur29zQA853L0oOcdqQt8y8H8qUt7H8qAA5x2pRn2pC3HQ0BuOhoAaP9e3+6P5mnHO8elNX/Xt/uj+ZqO/vLewtJ7u8lWG2t42llkboiKMkn2ABoAi1jUrPSbCS91K6htbWP70srBQPQfU9h1Nc/H4n1fUVD+H/DN1Nbn7tzqUwsY3HqFIaXH1jFQ+GtLn1+6t/E3iSDE+TJptjJytjGfusR/z2ZTlm6rnaOAS3Z0Acl/a3i+3y934X0+eMdV0/V/Mf8BLDEv/AI8KuaD4nsNYv5bRRPZ6iiBnsbyMxTqMnkKeGX/aQsvvXQ1keJPD9j4gtY47xWS4gbzbW6iO2a2kxgPG3Y/oRwQQSKANVt2Rig7se9c74P1e8uku9M1wRjWtNcR3DRjCTowJjnUdg4ByOzK45xmuibpQAfN7Ui7sDpS7vY0itwODQA1c/aH6fdX+Zp7Z3DpTFb/SH4P3V/macW5HBoAV847Uc+1I7cdDS7vY/lQALnA6UwZ89+n3V/maercDg/lTA379+D91e3uaAH85XpQ2cdqN3K8Ggtx0P5UALz7U1M46inbvY01G46GgBgz578j7o/rUhzuXpTA379+D91f608t8w4NACNnaelO546UjN8p4NLu9jQA1M7e1NGfPfkfdX+Zpytx0NNDfv34P3V/maAHNncvIpXzt7Uhb5l4NKzcdDQApzjqKQE46il3expA3HQ/lQAwZ89+R91f5mnHO4dKaG/fvwfur/M04tyODQArZ2dRRz7UM3yng0u72NACLnA5FMGfPfkfdX+tPVuOhpgb9+/B+6v8AM0AP5yvIoOcdRRu5Xg0FuOhoAXn2pqZx1FO3expqNx0NADBnz36fdH9akOdy9KYG/fvwfur/AFp5b5hwaAEbO09Kdzx0pGb5TwaXd7GgBqZ29RTRnz35H3V/macrcdDTQ379+D91f5mgBzZ3L0pXzt7Uhb5l4NKzcdDQAHOO1AzjtS7vY0gbjofyoAYM+e/T7q/zNOOdw6U0N+/fg/dX+ZpxbkcGgAbOw9KXn2oZvlPBpd3saAEXOB0pgz579Pur/Wnq3HQ0wN+/fg/dX+ZoAdzlelKc47UbuV4NBbjoaAI7v/j1m/3D/KmxD92v0/pTrr/j1m/3D/Kki/1a/T+lADhRQKKAPzjooooA/SA/eFD/AHTUZhj3D92n/fIoeGPB/dp/3yKAJaQdKZ5Mf/PNP++RQIY8f6tP++RQAo/17/7q/wAzTj1FQiGLz3/dp91f4R6mnGGLI/dJ/wB8igCRvu0tRNDFsP7tP++RS+TF/wA80/75FADweKYv+vf/AHV/maQQx4/1af8AfIpqwxee/wC7T7q/wj1NAEx+8KCeKjMMW5f3af8AfIpWhix/q0/75FAD8+9BPHU1H5Mf/PNP++RQYY8f6tP++RQAq/69/wDdX+ZrlviIPtdvoekN/q9V1SG3lH96NFed1PsywMp9ia6ZYYvPf92n3V/hHqa5jx6qWc3hnVCgEVhrETSMBjas0cltk+wNwKAOuAwMDpRRRQAUUUUAclr6/YvH3hm+j+X7ctxpcv8AtfuzcIT/ALvkyY/3zXWN92uT8T7bzxv4QsVwzW0tzqbjrhEgaDn6m5H5H0rqTBF/zzX8qAHjNFM8iL/nmn/fNHkRf880/wC+RQAL/wAfD/7q/wAzTz1FQrDF9of92n3V/hHqacYYtw/dp/3yKAJG6UtRPDFj/Vp/3yKXyY/+eaf98igB69BTB/r3/wB1f5mhYYsD92n/AHyKYIYvPf8Adp91f4R6mgCY9RQelRmGLK/u0/75FK0MWP8AVp/3yKAJKRelM8mL/nmn/fIpEhix/q0/75FACj/Xv/uj+tPP3hUAhi89/wB0n3V/hHvTzDFuH7tP++RQBI33TS1E0MW0/u0/75FL5MX/ADzT/vkUAPXpTB/r3/3V/maRIYtv+rT/AL5FMEMXnv8Au0+6v8I9TQBOfvLQ3So2hi3L+7T/AL5FDwxbf9Wn/fIoAlpB0pnkxY/1af8AfIpBDFj/AFSf98igBw/17/7q/wAzTj1FQiGLz3/dp91f4R6mnGGLcP3Sf98igCRvumlqJoYth/dp/wB8il8mL/nmn/fIoAevSmD/AF7/AO6v8zSLDFgfu0/75FMEMXnv+7T7q/wj3oAnPVaD0qPyYsr+7T/vkUGGLH+rT/vkUAS0i9KZ5MX/ADzT/vkUiQxY/wBWn/fIoAUf69/90f1p5+8KgEMXnv8Auk+6v8I96eYYtw/dp/3yKAJG+6aWomhi2n92n/fIpfJi/wCeaf8AfIoAevSmD/Xv/ur/ADNIkMW3/Vp/3yKYIYvPf92n3V/hHqaAJz95aG6VG0MW5f3af98ih4Ytv+rT/vkUAS0g6UzyYsf6tP8AvkUghix/qk/75FADh/r3/wB1f5mnHqKhEMXnv+7T7q/wj1NOMMW4fuk/75FAEjfdNLUTQxbD+7T/AL5FL5MX/PNP++RQA9elMH+vf/dX+ZpFhiwP3af98imCGLz3/dp91f4R70ATnqtB6VH5MWV/dp/3yKDDFj/Vp/3yKAEuj/os3X7h7e1JFjy169KS5ijFrNiNR8h6D2pYeIlxgcUAOooooA/OKiiigD9HyPmXk0OODyaU53DpQ+cHpQApHuaaq8dTTufakG7HagBqj98/J+6v8zTiPmHJpi7vOfkfdX+ZpxB3DkUAKRx1NAHuaCG9RQA3qKAEVeByaao/fvyfuL/M08bsdqYufPfp9xf5mgB5HzDk0OOOpoOdw6UNnHagAxz1PSkUfL1NL82e1C7tvagBq/69v91f5mqut6Zb6zpV1p16pa2uYmikAODgjGQexHUHsatL/r2/3V/mac27IoA5fwdrVwXbQPELhNfs1+8eBewg4W4j9cjG5R91sjptJ6qsrxBoNhr1vHHqEJMkLeZb3EbFJbd8Y3xuMFTz2PI4ORWOln4w0zEdpqOma1bgYUaijW04/wB6WMMrf9+x+NAHW1S1nVbLRdNmv9TnWC2iHzMeST2UAcsxPAA5JOBXIaJrfjHxDZSXFpp3h/TES6uLQySXk12Q8EzwsdgjiyC0bEfMOMZx0rS03wqBqsWo69ey6zqcGHgedAkVsxyCYYhwpxxuO5v9rFAB4Psbye7vvEGtQG31DUNqRWzHLWtqhPlxn/bJZnbHdschQa6k0nzUNu7UABX3NAX3NB3Y7UDd7UAMVf378n7q/wAzTyvzDk0xd32h+n3V/maed24dKAArx1NKF9zSHdjtSjd7UAIo+UcmmAfv35P3V/rT1zjtTF3ee/T7q/zNADiPmXk0MOOppTu3L0oO7HagA2+5oVeOpo+b2oG7B6UAMA/fvyfur/M08jleTTFDee/T7q/zNPOcjpQAMPlPJpce5pG3YPSl59qAEUcdTTAP378n7q/zNPXOO1MGfPfp91f5mgBzD5l5NK4+XqaDu3DpQ27B6UALj3NIF46ml+b2pBux2oAao/fPyfur/M07HzDk0xd3nvyPur/M0/B3DkUADDjqaMdeTQQ2Ooow3PIoARB8o5NNUfv35P3V/rTk3bR0po3ee/T7q/1oAeR8y8mkYcdTSnO4dKG3Y7UAG33NCrx1NHze1C7sHpQAwD9+/J+6v8zTyOV5NMUN579Pur/M085yOlAAw+U8mlx7mkbdg9KXn2oARRx1NMA/fvyfur/M09c47UwZ89+n3V/maAHMPmXk0rj5epoO7cOlDbsHpQAuPc0gXjqaX5vakG7HagBqj98/J+6v8zTsfMOTTF3ee/I+6v8AM0/B3DkUADDjqaMdeTQQ2Ooow3PIoARB8o5NNUfv35P3V/rTk3bR0po3ee/T7q/1oAeR8y8mkYcdTSnO4dKG3Y7UARXX/HpL/uH+VJF/ql+lLdf8ekv+438qIv8AVL9KAHCigUUAfnHRRRQB+j5PzDihzweKU9RQ/Q0AGfakB46U6kHSgCNT++f/AHV/maeT8wpFP75/91f5mnE/MKAEJ9qAfalJ9qAfagBFPA4pin9+/H8C/wAzUi9KYP8AXv8A7q/zNADifmHFDHjoaU/eFDdKAEzz07Uin5elOzzSKeKAGqf9Ib/dX+ZpzE7lpo/4+H/3V/macx+YUAKT7UA57UE0A0Acp8Mv+Rbuv+wzq3/pwuK6cf8AHw/+6v8AM1zPwy/5Fu6/7DOrf+nC4rpx/wAfD/7q/wAzQA4k5FKTQSMilzQAh6UCgkYpQaAIlP8ApD/7q/zank/MOKap/wBIf/dX+Zp5PzCgBGPHSlB68UE8dKM0AIp+UcUwH9+/H8K/1qRelMH+vf8A3V/maAHE/MvFDHjpSn7y0N0oAQn2oB9qUmgGgCNT+/f/AHV/maefvLTVP79/91f5mnn7woARj8p4pc+1DfdPNLQAxD8o4poP79+P4V/maen3aaP9e/8Aur/M0AOJ+ZeKHPy0p+8tDfdoAM+1IG46U6kHSgBin9+/+6v8zTs/MKQH9+/+6v8AM07PIoAG6UCg0CgBEPyjimKf9Ifj+Ff61In3RTB/r3/3V/maAHE/MOKGPHSlP3hQ3SgA3e1IrfKOKdSL90UARqf378fwr/M08n5l4pqn9+/+6v8AM08/eFACMflPFLn2ob7p5paAGIflHFNB/fvx/Cv8zT0+7TR/r3/3V/maAHE/MvFDn5aU/eWhvu0AGfakDcdKdSDpQAxT+/f/AHV/madn5hSA/v3/AN1f5mnZ5FAA3SgUGgUAIh+UcUxT/pD8fwr/AFqRPuimD/Xv/ur/ADNADifmHFDH5elKfvChvumgCG6/49Jf9xv5URf6pfpRdEfZJuf4G/lRDzEuPSgBwooFFAH5xUUUUAfo6YYsj92n/fIoeGLH+rT/AL5FSEcjk0jDjqaAG+TF/wA80/75FIsMWP8AVp/3yKkx7mkUcdTQBEIYvPf92n3V/hHqacYYsj92n/fIpQP378n7q/zNOI5HJoAY0MWz/Vp/3yKXyYv+eaf98inMPl6mlx7mgCNYYsD92n/fIpqwxee/7tPur/CPU1Ko4HJpqj9+/J+6v8zQAhhi3L+7T/vkUPDFt/1af98inkfMvJoYcdTQA0Qx4H7tP++RSJDFt/1af98ipAOnJpEHy9TQBEIYvOf92n3V/hHvTjDFlf3af98igD9+/J+6v9aeRyOTQA3yYv8Ankn/AHyKPJi/55J/3yKdj3NGPc0Acl8NIYz4cu90aE/2zq3VR/0ELiuoEUfnt+6T7q/wj1Nc38NP+Rdu/wDsM6t/6cLiunH/AB8P/ur/ADNACGGLcP3Sf98ilMMWP9Un/fIpWHzDk0pXjqaAG+TF/wA8k/75FIIYuP3Sf98ipNvuaRV4HJoAhWGL7Q/7tPur/CPU08wxbh+7T/vkUqj9+/J+6v8AM04j5hyaAGNDFj/Vp/3yKXyYv+eaf98inEcdTS49zQAxYY9o/dp/3yKYIY/Pf92n3V/hHqalUfKOTTAP378n7q/zNAAYY9y/u0/75FK0MeP9Wn/fIpSPmXk0rDjqaAG+TF/zzT/vkUCGLH+rT/vkU/HuaQDjqaAIVhi89/3afdX+Eepp/kxZH7tP++RQB+/fk/dX+Zp+ORyaAGNDFtP7tP8AvkUvkxf880/75FOYcHk0uPc0ARrDFj/Vp/3yKYIYvPf92n3V/hHqamUcdTTQP378n7q/zNACGGLcv7tP++RQ8MW0/u0/75FPI+ZeTQw4PJoAb5MX/PNP++RSCGLH+rT/AL5FSY9zSAcdTQBEsMXnv+7T7q/wj1NOMMWR+7T/AL5FKo/fvyfur/M04jkcn86AGNDFt/1af98il8mL/nmn/fIpzD5eppce5oAjWGLA/dp/3yKYsMXnv+7T7q/wj1NTKOByfzpij9+/J+6v8zQAGGLcv7tP++RQ8MW3/Vp/3yKeR8y8mhx8vU0AN8mL/nmn/fIpEhi2/wCrT/vkVJjpyaRBx1NAESwxec/7tPur/CPenGGLcP3af98ihR++fk/dX+tPI+YcmgBjQxbT+7T/AL5FL5MX/PNP++RTmHynk0uPc0ARrDFj/Vp/3yKYIYvPf92n3V/hHqamUcdTTQP378n7q/zNACGGLcv7tP8AvkUPDFtP7tP++RTyPmXk0MODyaAG+TF/zzT/AL5FIIYsf6tP++RUmPc0gHHU0ARLDF57/u0+6v8ACPU04wxZH7tP++RSqP378n7q/wAzTiORyfzoAY0MW3/Vp/3yKXyYv+eaf98inMPl6mlx7mgCNYYsD92n/fIpiwxee/7tPur/AAj1NTKOByfzpij9+/J+6v8AM0ABhi3L+7T/AL5FDwxbf9Wn/fIp5HzLyaHHy9TQBDcxItpLtQD5D0+lLCD5S9uKW5wLSXk/cP8AKmxgGJcelAD6KKKAPziooooA/SA7sjpQ27HagtyODSM3HQ0AO59qRd2O1G72NCtx0NADRnz36fdX+ZpTnI6U0N+/fg/dXt7mnFhkcH8qAFbOztS8+1NZvl6H8qXd7H8qABQcDpTFz579Pur/AFp6twODTFb9+/B+6v8AM0AOOdy9KVs47UFvmXg0Owx0NAAN3HSkTO3tShunBoRuOhoAYM+e/T7q/wBacc7l6U0N++fg/dH9acWG5eDQA47vagZ9qCfY0A+xoA5X4af8i7d/9hnVv/ThcV04/wCPh/8AdX+ZrmPhp/yLt3/2GdW/9ONxXTj/AI+H/wB1f5mgBWzuHSlOdvUUMfmHB/KgnjofyoADu9qRd2ByKdn2NIp4HB/KgBgz579Pur/M087tw6UxW/0h+D91f5mnFvmHBoAU7sdqX5vamluOhpd3saABN20dKYN3nv0+6v8AM09T8o4NMVv378H7q/zNADju3L0pW3Y7UhPzLwaUtx0NAC/N7Ug3Y7Uu72NIG46GgBi7vPfp91f5mnfNkdKarfv34P3V/mafu5HBoAG3bT0peeOlIzcHg0u72NACLux2pg3ee/T7q/zNOVuOhpob9+/B+6v8zQA453L0pXzt7Uhb5l4NDN8vQ0AO59qQBsDpRu9jQG46GgBi7vPfp91f5mnndkdKYrfv34P3V/macW5HBoAG3be1O+b2prN8vQ0u72NACLuwOlNXd579Pur/ADNOVuBwaYrfv34P3V/maAHnO5elK+7b2pC3zLwaHb5ehoAdzx0pqbsdqUN7GkVuOhoAau7zn6fdX+tPOdw6VGrfvn4P3V/rTy3zDg0AK27aelLzx0prP8p4NO3exoARd2O1MG7z36fdX+Zpytx0NNDfv34P3V/maAHHO5elK+dvakLfMvBoZvl6GgB3PtSANgdKN3saA3A4NADF3ee/T7q/zNPO7I6UxW/fvwfur/M08tyOGoARt23tTvm9qazfL0NO3exoAau7A6U1d3nv0+6v8zTlbgcGmK379+D91f5mgB5zuXpQ+dvagt8y8Gh2+XoaAI7r/jzm/wBw/wAqSEfuU+lLdf8AHnN/uH+VJD/qU+lAD6KKKAPzjooooA/SA9RQ3SmGCLI/dJ/3yKRoIsf6pP8AvkUAS0i9KZ5EX/PJP++RSCCLH+qT/vkUAKP9e/8Aur/M049RUQgi89/3SfdX+EeppxgiyP3Sf98igCRvu0tRNBFt/wBUn/fIpfIi/wCeSf8AfIoAeucCmL/r3/3V/maFhiAGIkH/AAEUxYY/Pf8Adp91ew9TQBMfvLQ/Suf8YaidI0yP7Bawy6leTpZ2iOvyea54Zv8AZUBnOOcKcc1n2/w98PyjzNfsodfvm5ludUiWfLd9kbApGvoqAAfrQB2A6CkXpXL/APCuPBH/AEJvhv8A8FcH/wATR/wrjwR/0Jvhv/wVwf8AxNAHTD/Xv/ur/M04/eWuX/4Vx4I/6E3w3/4K4P8A4mj/AIVx4I/6E3w3/wCCuD/4mgDqjXM/EbwwnjDwbqWjmTybiVN9tOCQYZ1O6NwRyMMBnHOMjvUf/CuPBH/Qm+G//BXB/wDE0n/CuPBH/Qm+G/8AwVwf/E0AeR/ss+DtchbU/EvjKW/kv45ZrKyivZGdosyF7iQbieXkzkjqQ553V9Bj/j4f/dX+ZrmP+Fc+CP8AoTfDX/grg/8AiaP+Fc+CP+hN8Nf+CuD/AOIoA6o/eFKelcp/wrjwR/0Jvhr/AMFcH/xFH/CuPBH/AEJvhr/wVwf/ABFAHV+tIvSuV/4Vx4I/6E3w1/4K4P8A4ij/AIVx4I/6E3w1/wCCuD/4igDqF/17/wC6v8zTj94Vyp+HHgrH7vwnoULdngsY4nH0ZVBH4Gq+lpJ4b8RWmhXM0t5pN+jtp8tw3mSwSRjc0LOeXBXLKWyw2OCTxQB2dBziovIh/wCeUf8A3yKDBD/zyT/vkUASL0pi/wCvfr91f5mhYYsf6tP++RTFhi89/wB2n3V/hHqaAJT95etKenU1GYYty/u0/wC+RSmGLH+rT/vkUASUg6UzyYv+eaf98ikEMWP9Wn/fNACr/r3/AN1f5mn9xUCwxee/7tPur/D7mn+TFkfu0/75oAkboaWomhiwf3af98il8mL/AJ5p/wB8igBy9OtNH+vf/dX+ZpFgix/q0/75pohi89/3afdX+EepoAm7jmhulMMMWR+7T/vkUGGLH+rT/vkUASUg7UzyYv8Anmn/AHyKPJi/55p/3yKABf8AXP8A7q/zNPP3hXI+I5LnUfEFv4d0pzZ+ZB9qvryNRvhg3FQiZHDudwDdgjHrtNOT4b+DAo+0eGdKvZO819bLdSt7tJIGZj9TQB1Z+7S9q5X/AIVx4I/6E3w3/wCCuD/4msnxR4R8EaDotzfjwFot68SkrBb6TCWcgE4J24UccsxAFJtJXYLU78dBTV/17/7q/wAzXCr4Q8AR+H11e/8ACPhi0tRbC5laTToNsS7dxydnb1rjdMl8AXV/bJdfDm3tYpbUzND/AMIfPJIj7gAMrb8jB5IBGehPd9bB0uewa5f/ANmaTd35j8wW0Ty7N23dtGcZ7VTN1r5H/IJ0/wD8GDf/ABqvPvFeieELTT5V0b4f2bXD2P2tbuDS7a3NmpztdxIUkVhgnCqWGOmeKp+G9N8M3dzK+v8Aw38P6Xp6QTTNc3FhYIsflOQ5IWV2IxjJ2gKR1IIxolHlTavqzVWjBStdt+fl5+Z6d9s1/wD6BOn/APgwb/41R9r1/wD6BOn/APgwb/41XCCH4TfYTdt4c0KNBMlv5UugeXN5jruRfKaIP8wHy/L8x4GTUtxZfCq30u21B/DOiNBcGQIkWgeZMPLOJN0SxGRQhGGLKNpwDgkUlJP7K/H/ADFzr+Vfj/mdn9r1/wAxv+JTp/Qf8xBvf/plS/bNf/6BOn/+DBv/AI1XFajafCbTrpILnw94eLvHDNvh0QSxrHKSI3aRIyqoxBwzED3oOlfDm3trmfUfB2gQCK+exjjh0hLiWdx/cjjjLscZOADgAnoCaTmr25V+Pl5+Yvax6RX4/wCZ2v2zX/8AoEWH/gwb/wCNUv2vX/8AoEWH/gwb/wCNVy3hDwt4F8SaDDqkXgnw3FHLJKir/Z0LZCSMmc7B1256d62v+Fc+Cf8AoTvDf/grg/8AiafMv5V+P+Y/aL+Vfj/mWLvV9Xso45bvSrNYWljiYx3zMw3uqAgGIZ5Yd63x/r3/AN1f5muB8UeA/C9jpQn0nQ9O0u6FxAi3Gn2yW8i7pkUnKAZ4JxnODzWz4Qvbma61XSNZCS6jpjRo04jCrcxOC0coUcAn5lIHG5GxxinKzipJW3/Qqai4KSVtX+h1B+8KH+6ajMEW5f3Sf98ih4Ytp/dJ/wB81mYktIOgpnkxf88k/wC+aQQRYH7pP++aAHL/AK9/91f5mnHqKgWCLz3/AHSfdX+Eepp5giyP3Sf98igCRvu0tQtBFt/1Sf8AfIp3kRf88k/75FAD1+7TF/17/wC6v8zSLDFj/VJ/3yKYsEXnv+6T7q/wj1NAE5+8tDdKjMMW5f3Sf98ihoIsf6pP++RQAl2R9lm6/cb+VNix5acnp6UlzFGtrNtjQfu26D2pYeI0xxxQA89aKD1ooA/OKiiigD9ICvI5P50MvHU/nQd2R0obdjtQAuPc/nSBeOp/Ol+b2pF3Y7UAMC/v35P3V/macRyOtNG7z36fdX+ZpxzkdKAFYfL3pce5pGzt7Uvze1ACKOOppqj9+/J+6v8AM05d2Oopg3ee/I+6v8zQBzHjL/kZPAv/AGGZf/TfeV1a9/rXKeMf+Rk8B/8AYZl/9N95XWUAFFGaM0AFFFFABRRRQAYHpRRRQAUUUwSxmZohIplVQzID8wByASPQ7T+R9KAH0UUUAFcp4x/5GPwL/wBhmT/033ldXXKeMv8AkY/Av/YZk/8ATfeUAdUR7mkwMdTQQfagA47UACjjqaYo/fvyfur/ADNPUNjqKYu7z35H3V/maAHEfMvJpSOOppCGyORSndjqKADb7mgLx1NHze1ALY7UAMVf378n7q/zNO28jk01d3nv0+6v8zT/AJsjpQAMODyaXHuaaxbB4FLlvagAVeOppgH79+T91f5mnKWx2pgLee/T7q/zNAEhHI5NBXjqfzoJbI4FBLY6CgBce5pAOnJoy3tQC2OgoA5bTf8AkqniH/sC6b/6Pvq6uuU03/kqniH/ALAumf8Ao+/rq6ACqGtWr3+jX1rCVWSeB4lLdAWUgZ9uav0lJxUk0xruc+9vc2mgQ2s+mjUo7e1jBiglXzJZVxwok2qMY3Bi4OR0rzs6DcHXBdjwl8QTbC3MW3/hJx5m/cD1/tDO3GeM49q6/wASTavp/iPS2s9amnlvLtI00cQRCI24wJpGbYZMoCW3bwudi4y3KfETxPdeH205LSbTLMSSh5rrVr1bK2KDJ8oSsr5kbHQKflDHK/KSdb/1/WpO2n9f1oc3410K51PTb7V7rw7a5trOOCBdXmSS4s1TezyxsglzIcqPvjOzJapYPDHiC7i1zTdQtFh/thJz9tEyzRWcT72SBVBR9wkdmPykMD9/oFZ8N/GsviJYdKvLrwlfLPJciRIfEBurlo/MkOBAYRuXGB94Dbz7Vztyratths20C0f7TGyxS+FrqL92LhI/lnaZUlUb13FOCCema19yyg/P8bG0ZxdNRm7W129PTsdHrOg+Jn1m2124tdObV5by0jW1t5ZJbdI4EuDueUxhhuaVhnYQny/ePVNT8A6vcSWuqBrebVS12Z7dNUurGNPPZGws8ADuF8tVwygP1+UgCq+iWtvb6RpWn2mjaLrurXcc9zbvPGbKN7SJlUPuJnZid8e0k5ZWBYg5zcmvNKj1WZR4M08aVaXdvYXtw7p50M8yoVAiVSrKpliDNvGMnAYDkUIJtpvXy9F38he43u/u/wCD5l4+BrqLRdTsbZrJDcaTZ6dCV8wKphMmc7izBfnGMsx659as3HhrVraVL7T/ALDNfW+rTahFBPM8cUsckbRlWdUYqwD5yFbpjvkcpqeoWEN/ZX8nhrTrTwytxeo86rHLLcJbwzFsx7PkG+IldrEkDnbnB0/AGpeF/Fl/d2a6J4d8+CGO5B0+6ivU2OSArsqqUkBXlcEcjDHsnySlzczv6fPv5EqFJdX9y/z8zuPBel3ej6ClpqEkMlz588ztDnZmSZ5OM8/xd/1rdrDHhTQP+gNp/wD34X/Cj/hFNA/6A2n/APfhf8KLQ7v7v+CVy0+7+5f5jvGX/IFX/r7tf/SiOs7TP+Sp+Iv+wNpn/o++rTi8M6HDKkkWk2KSIQyssKgqR0IOKzNM/wCSpeIv+wNpn/o+/ok1yqKHOUeVRj5/p/kdUfvDk0MODyaDu3DkUNuweRUGQuPc0gHTk0vze1IN2ByKAGKv79+T91f5mnleR1pq589+n3V/macc5HSgBGX5e9O2+5pGzt7UvPtQAij5e9MVf378n7q/zNPXO3tTF3ee/T7q/wAzQA8j5l60MOO9BzuXpQ27HagCO7/49Jv+ubfypsX3F+lOu/8Aj0m/65t/KmxfcX6UAPNFB60UAfnHRRRQB+j5PI4NDNx0NKRyKGHFABn2NIrcdDTqRRxQBGD+/f8A3V/maeT8wpo/17/7q/zNPJ5FACMfkpSaGPy0tACL0FMH+vf/AHV/maevSmD/AF7/AO6v8zQBy/jH/kZPAf8A2GZf/TfeVc8Z30lhp1nJEMl9QtIT87Lw86KfukE8HoeD0IIyKqeMv+Rk8B/9hmX/ANN95XQahp9tqMUcd5F5iRypOo3EYdGDKePRgD+FApappHmSeMPGE9pazRHQYjeaXcalGHtZX8kQsgKnEo37/MByNuzn79c38YPEsdvqOhzjVLaye8to5ms18UXenzyn7yoFRTDGhwymWQDdkgMhUGvYI/C+kRx26JaYS3tZLKIeY/ywyFS6dec7F56jHB61Q1jwYmoW0kEeuazZQtH9nWO3kj2JCUCtGEdGVs4zuYM452soJFSr3/rz/wCB9z+ddf68v+CeaxeJ9Hh8FeIptN1Pw9dX6Sw212P7bmnZYGZQIzfShmcMXbD7VjQuw4KsxgvNS8QTeIreRLvxRcmNIjYvojaULN1nDZMbyAs0WI2Cq4Y/u1YkErj1ufwxFK84XVNYitp8ebbx3jAE8cq/+sj6DiNlHtkkms/guyXT2t7O7vLK485JkvYPK82MpkKqqyGMKFJULsxyT94li3vfrp/wf1sLZWOW8c6nq8xl0WO6u4NJutLjzdt4avb6aV33q4JtygicKEOCoOW4Axis3wq95pttr90bjxHdiG2jWK48q9s2j3s28qmq3DwsVCId3YEjnOK9BsfCGn2Vvbxxy3TyW7QNHPI4aQCFdqrnH3SN2R/tueCaVPCOm/2b/Z7m4azNq1i8Yk2boScquVwRsBKqQQQCep5pg32PMYpfEsHifV5pZPH0fl2Vu0rk6CrKgaY5cn5AvXGOeueMV6B48uLm88ESafbxeRqusxfY4Le5KsyvIvz79hKnau9m2kj5Tg024+G2gzrc5n18SXEflSSHXr5yyjOAQ0pDAbjwwI5PHJrdtdCt4ddn1eWWe5vHQRRGZgVto+MpGoAChiAWPLE4ySFUA3C9tTn/ABVe2mt/DW7uBp0N/wCbFtW0ns3u1ScNt2vEkcpJRwc/I2Cpz0zXzxPowtLy/nfw9GRb2scrI+gAqADIclToqAA4PPyZx984+X6gn8MadNf3s0sfmW19HsvLGRVe2uW4w7xsD84AxkY3DG7dtXbzunfCTwfaz38txo2nXhuT8gk0+2j+zKCxCxGKJCv3vvEluB83AoTtK4uljK1XxrJo1/YWmgR2sOkRPZW/2BdGu98azOi4eUBYrUhXBEbqTgDpuAq1pvjHXWvLee/XTP7Ou9SvdMhhhjcTK0JmKSMxcggiEgrtByQwbnaOo1DwXoWoanJf3dpK9xI0UjgXMqxu8ZBRzGGCF12rhyN2ABnFUdC8Cadpc1xdM8lxfSTXUySvJJ5cZnkdyViLlA4D7N4AYgdcHFDfuvvqVp/Xo/1sZ/gXxVrOp3WjJro00rrGkjU4Es0ZTBt8sOjMXYOD5ykEBcYI561b+I9/DpmqeCby5S5eKPWX3LbW0lxIc2F4OI41Zm69gcDJPANXvBfg3TvCtjax2wkmu4rWO1aeSR2G1QBiNGZhEpIztTAz61H4z/5GLwL/ANhmT/033lN26ERv1D/hO9I/58/En/hOaj/8Yo/4TvSP+fPxJ/4Tmo//ABiuqopFHK/8J5pH/Pn4k/8ACc1H/wCMUweO9I8xz9j8ScqP+Zc1D1P/AEwrraZ/y3f/AHV/maAPO4PF+t3t1Fe2UdiukTakNPS3uYJYrlRtOXYk/KSwxsKAqOSSflrzj4nalciCxtpnl0l5PNXy31grbMYrkhljZr61BC4GAYScFQCABj2PU/A+mXmu2+rwK9tex3aXcm2RzHI6rt3eVuCByuF8zbuwMZxVS9+H8FzLLMuqaokxFy0ZW9ngCSSyb+RBJFuQH+HIz655qFfr/Wn+YP8Ar73+ljkfCV5fXfgaHU4vEGpafYQ3ki3N4t5aurRZCmQPcy3gKowxgSoMbiATtDVfh8Li/wDFEZi1nxOL6C4umkW5itII5bT7QxDOpt1d9zAjaMGMl+Y9wDehaH4NisdFtra7vJLnUbczPFegu5ikkJPmIs7y/OAcBnLnGRnDEG/Z+F7GKysYbppry4s5muI72Vgk/mM5dzujCgBiSCoAUj5SCOK0Evht/X9f16+c6XrGpwaz4bvp9Qu5LSO2K3kbzsUdZJ3iDsCcEqxjO48hQR0NZd5dT6zY6zcalMb20vrmxvILa8sZtRhjikaXYotVIY/IsZIXHzZY16rc+DvD91Y3Gnz2AktprU2kkZlk5hZixXO7PXJyOR60uoeFNPuJlntnnsbpduya3YHBSN0Q7XDJ8okYjK4yBnOKxjF8nK91/ncTT5r/ANbW/r/M8Pggspktg3he3uJkFi0+pHTLSWYo0NuiLA8lxHIjBsjhHwWXAz10vGurW0njK4e81i2sNWheS1MWqeJRpcSwkFoxGtnM8g6IzGYLuyMbcqq+ij4a6YZ7edtQ1Qz2e1rBxKi/Y5BEsRkQBMMWVFyJA69cAAkHbl8Nmaae4l1fU3vW3C2uGMJNmCMHyk8vy89fmdWbDEZwcVtJ3Y1p/X9f1p5nmFvqCTfDl4U1DW5LaCd3m1W21S2vxNIsckm2CVjO4RWRAm5UkGUOc7s4Oq+JNbh8TOHv9Z/cGWMuJZvLVd43qXXSWIDGFjlHKqI32sAK9gv/AATFf+HX0i61fVJFnmM11c/uBNcZ7EiPagxgAxqjDaMEHJK3PgnS7ixks1mvYpG3E3Al3yhWaUlcuGByJpVyQWw2c5AYJPW7H0sST+N9Ntp5IJ7PXjNExRzBoV9LGWHB2usOGXPRhwRyKZ/wnukf8+XiT/wnNQ/+MV1IGMD0FOHSgDlP+E90j/ny8Sf+E5qH/wAYrzH4o/HK48E+JNImttNubvQbyFklt7zTrqwnSRG5eN5kVWBDr8oBxt5IyK95rm9Y8EeH9b8S2uu6zp0d/f2sIhtxckvFENxbcsZ+XcSfvYzwPSgDmvht4osvGPjDV9b02G8gtbnRNNKpdQmNx+/vu3Qj3BI969Jrk9KVR8UfEAAHGjaaBjsPPv6zfFaz6P4r0bUo7jVRFdX0cFzO93m0ijZfLWHyN2CzyMmGCZBJy4HykA76krzb4pajcaZrfh2e3mvLgxzSy/YrO0E8oK2lzhoxkEs2SArZBKgjGGzyngHV7WbW9P1CX/hJ4DcRy3kUKpqjQ3O7B8yYSfuE4kztQMgYA+ZgqKB228/6/r+r+lp4ReLxRd65beINXhlu3jM1uEtXjZEGBEGaEyBOpwHHLMRgkmreo2XiHMY0fWrCJMuznUNOa4Y5YkBTHLEAqg4GQSQBkk5J4STx74is9Ot7i6g0mafU9PXUbGNFkiWIGaFDFKxYljtnT94AoyD8varWs+Ntb0ZzpV0bOfVTfpai8tNNuLiNY2gabcbWN2kZvkK4D45DEgZFDb6/10Enc3NC0HxZpcCWx8Q6HLbeZJI2NFlWQl3ZzhjdEDljjKn8aqah8N4b61jsptav300Wosnt5I4WxCAuVRtmfnZFZi+8nGBtzWYni7xVqFtp0VlaWNheSafeXU7ahYzqGeCVEXbEzxuiyBtw3ZKgj73eSHxXqBttSvrUJ9pvG02K2inZnhge4VRuwCMgFskAruxjIzkJu69f+Cv8yHZOz/q1n/kbbeDru5WOe88QXcGqRGRI7zTYkg2QOqAwrHJ5qgfu0YkDO4ZG3JFSSeBbGTVVuvt2pC2MsNxNYtMrw3E0ShY5JCymQsNkZ4cAlFLAnOfMvE95qsSXsWsW9vrUketCGSL7fdRQtEUtiQbVElDxHdgq27YX43E5rqI7RWgttahvL6O5bVbeFYrbVrh7MRl0XYkW4RFNpwPkGeuAae9vl+n+f9MbnZN+v6/5HRnwDp0l60lzeahPZebPKmnSOn2eMzI6yhQF3EN5jHBY4J+XaCQdTw9oB0aSV5dX1TUmdVjT7bKpESLnCqqKq555YgseMscCuYXxVr3/AAjMniMR6ZLp92ifYrfy5Y5YHklWOPzTlg4O/c2AhXGPmzkRzeKPEUF8PD7nSn1p9RWzS+W3k+ziM273G8w+YWDYRk2+ZycNn+Gp6lHo1FeMWPjLXtN0m0sEdrjU5bjU55Z30671JSIrx0SFVh+dByAHbhQoG05GMrx14rvdRs9ccX2m6FKtrZs8VxfCO4TequIZBLAwixvc42kvkYZdjLVWXQet7M98rldO/wCSpeIf+wNpn/o+/rC+HYln1x9QudUubsXdvJ5WNQe5t5tsgDOg4jGB5eCiICHJ74G7p/8AyVLxD/2BtM/9H39FrE3vc6kn5l4NDng8GlP3lpX+6aBhn2NNB4HBp+KQDgcmgCNW/fvwfur/ADNPLcjikX/Xv/ur/M049RxQA1m+XpTt3saRvu06gBqt8vQ0xW/fvwfur/M1Iv3aYv8Ar3/3V/maAHE/MvBoZuOhpT95aG6UARXf/HpN/wBc2/lTYvuL9Kdd/wDHpN/1zb+VNi5jXHpQA89aKD1ooA/OKiiigD9HjDHkfuk/75FI0MeP9Un/AHyKeRyvJ/Ohxx1P50AJ5Mf/ADzT/vkUghjx/qk/75FPx7n86RRx1P50ARLDGJm/dx/dX+EeppxhjyPkT/vkUAfv25P3V/maeR8w5oAaYY/+eaf98ikEMeP9Wn/fIp5HuaMcfeNADFgiAH7tP++RTVhj89/3afdX+EepqVRwOTTFH79+T91f60Acv4vRU8S+BNqqv/E5l6DH/MPvK63Fcl45YQar4NvJDi3t9ZAkY9F821uIE/OSVB+NdbQAUUUUAFGKKKADFFFFABRRRQAUUUUAFGKKKADFcp40APiHwKCMj+2ZP/TfeV1dcn4tPneLvBFtHzLHf3F6w9Iks54mb6b54x/wIUAdR5MX/PJP++RR5MX/ADyT/vkU7b9fzoKj1P50AMEMQH+rj/75FMEMf2h/3afdX+EepqYYx1NRjH2h+T91f5mgBWhiyP3af98il8mLn92n/fIpzYyOTS+vJoAjEMWP9Wn/AHyKXyYv+eaf98inAcdTS/iaAIFgi89z5Uedq/wj1NOaGLev7tP++RSr/rn5P3R/M09vvryaAGGCL/nlH/3yKBDF/wA80/75FPP1NAHuaAGiGLH+rT/vkVGsEX2hz5Uedo/hHqanA46mowP37cn7o/maAAwQ5H7qP/vkUpgi/wCeSf8AfIpzDkcmgjryaAGeRF/zzj/75FL5EX/POP8A75FOC8dWox7mgDlNLXZ8UfEQHT+xtN/9H39XLrw1oiam+t3UbRyRt9offdSLbh1XHmtFu8reAPvlcjA54qnauIPitqaSkBr3RbQwj+95E9z5n5faIv8Avqt/WYY7jSLyGef7PDJC6PLhDsUjlsOCvA/vAj1BFJu2oWvucLceLvh1LqWl58YaKJ7JzcxyHU433/JJHteRmOcecxC7s9xwDWxp66NHrlrqNtrPn2+pRyrYwosX2QlyrymOREG53K78M7E4cgYDY4m21HWr2LTJtE8ReLdShuEuBJbWkelJNB5bRhdwmgjC5VwSp+b5lwMc1a8W3Fhpllo9vqWq2ltf+S0kkWr+K20OYBmzkpZr5chzuBIGOOCcmi9rIH2Zpw+GPCOo2lxpuhErJeQQysSZp1gtxIkqxAOcQK2fljGzIyQpCnGk2jeE49IvLNzcFIL1TNKbu5a7W5KqFIm3ecXKsqghslSFHy8V55ot5p8ks9jp95ol3aDS7pWs7TxZca3HtVBtDW8yhFUdM4Pp0NYvgnw7a3l55V54W06cOLWQCfQYl+U3EayFd2n23GxmzjeAOcjHKS5pcq/rX/gCb5Vf+v61PaxpXhjQYgGFpZpZ2UqsZbgrst3YNI7lm53MuS7ck5JPJqO60vwpb6OtvctaQ2GqfZ7WIvdlPOZQBCsb7s7wACpU7sjI55rz/U7a3t/DGqRWVpa2sB8LyP5NvAsUYJdicIoCjJJPA71X1INLLb6O6t5PhXU7KFSU2qTNewmELnulvheP75pwfPZdW3+bX9ebHb3n/XRHVNf+DtEM9jbwa0rpfI8s8WmX135lwjIcGby33klFBwxJOe/NXtI0LQPEV5Lqtlca+ssV+s8kNxNd2yJKu1wptZdq4wVOdmTnIOea4zV9D1O/mub+xshNZ3GssI5f+EpvrQNifbxDEhjXlSNwJPfrWgNEubjSrvQru204XU+tITBqNxNrMG1baOQlmm2PIMAcEgAkDsMqL0Te+n/tv9fITWrT/rc7HTvC3hW9OptbWhuEkaW0nimmlZISWzIkcbtiIEgN8gUH5WGflNZFovgmW1utHjTVUX7SJ3uJ0v45ZJlkSESJdvh3IZkTcrnCkDO2qln8MpLXULG7itPA8Jt7mKYtYeGzaTgK4J2S+e+04B/hOenGcjA1exlee/RdRltVS4wt1AqMsn+l2wYKXRlJRlIYEA5HGQGw9v6+f5jWrt/Xod5b+FfCesacbGygl+y2E08Qe0up4SHkYtMglRlLqWJ3LuK7hgjK4D7bQNK1W5MsF/fta2k32c2CSmK3jWPAEJhAA2hlDgkbiCBuMZ2nkkszrHhew0FtWtdWvHuolaHVLK3nt0jRC4ZYYViDwsqhlOe45yMVcs/hnJZ6jY3UNp4Hha3uYpi9h4bNnOFVwTsl899pIBH3TnOOM5qk9X6/0xSfVf1vodzpvh/TNN1C61C2tIBqF0zGW78pBM4LbthcAEqD0BrLsFVvil4h3KD/AMSbTOoz/wAt7+urFcpozrcfErxRNEQ0cNhp9k5HaVWuZSv/AHzPGf8AgVJdhnUGGLcP3Sf98ihoYsH90n/fIpxHzLyaHHynk0AJ5MX/ADyT/vkUghix/qo/++RT8e5pAOByfzoAjWGPz3xHH91f4R6mnmGPI+RP++RSAfv35P3V/maeRyOaAGmGL/nmn/fIoEMX/PNP++RTiOOpoAPqaAGLDHt/1af98imLDH57/u0+6P4R6mpkHy9TUaj9+/J+6v8AM0AKYY9y/u0/75FDQx4/1Sf98inkfMvJoYcdTQBDcxItpNtRR8jdPpSwghEx6Ut1/wAek3X7jfypIgNi/SgBxooNFAH5x0UUUAfo+c5HShs47UFuRwfyoZuOh/KgBefakXdjtS7vY0itx0P5UAMGftD9Pur/ADNPOcjpTFb/AEh+D91e3uaeW5HBoAGzjtS8+1IzcdDRu9j+VAAC2O1MUt579Pur/M09Tx0NNU/v34P3V/rQBX1bTrXV9NubDUIhNa3CFJEJIyD6EcgjqCOQeRXORQ+MtIX7PavpOu2qcRy6hcSWlwF7B2SORXP+0FXPpnk9bn2NDn2NAHLfbvHH/QveGv8AwfT/APyHR9u8cf8AQveGv/B9P/8AIddUOnQ0m72NAHK/2h433lf+Ed8N5AB/5D0/fP8A05+1L9u8b/8AQveG/wDwfT//ACHXTD/j5f8A3F/makFAHLfbvG//AEL3hv8A8H0//wAh0fbvG/8A0L3hv/wfT/8AyHXU5ozQBw2h+JPGGs2Ul1a+G/D6Rx3NxaESa7MDvhmeFzxZngtGSPbHTpV4aj43Llf+Ed8N5Az/AMh6f/5Dpfhof+Kcu/8AsM6t/wCnC4rpVH+kt/uj+tAHNfb/ABv/ANC94b/8Hs//AMh0fb/G/wD0L3hv/wAH0/8A8h11VFAHK/b/ABv/ANC94b/8H0//AMh0fb/G/wD0L3hv/wAH0/8A8h11VFAHJm+8byFo10Tw3btgHzDrE8u3PfZ9lTPTpuH1rON/png7XtLbxVqouvEniKYWUM3l7I1C8iKJMnZHuZRySSzjJPGO5/5eX/3F/ma+d/jX8Ldf8ZfEPStQu9et7GG5uv7P0qGFHcwqltNceY5yuGLxEfLnAYHJ24IB9FOGoHSqOgjUY9DsE11rd9UWFVuWtiTG0gGGZcgHBPOMcZq/2oAAWx0FMBb7Q/A+6v8AM1ID7Gow3+kPwfur/M0AObdkdKU7sHpQzcjg0FuDwaAAlvagFvagn2NCn2NADAT579Pur/M08k7x0poP79+D90fzNOJ+ccGgAO7HagbsdqC3HQ0BuOhoAATjoKjBP2huB90fzNSA8dDTAf8ASG4P3R/M0AOO7I6Up3e1BbkcGjd7GgAJPtSgk+lITx0NKD7GgDE8R6GmstE8U8lnqFoRLa3kON8L8gjB4ZWHDKeCPQ4Iyp28Zm3a0u9H8MarGw2vI9/NbLKO+YjBLj6bzXWD/Xyf7q/zNPoA861rw/qetXQuta+HvgPUbkKIxNd6i0zhRkgbmsSccnj3rR0pPFWk2EVlpfhHwlZWcWdkFtrMsUaZJJwq2QAyST+Ndrmg0AcfcSeL7nH2jwv4XlwCv7zW5m4IwRzZ9COtZ02l63cSXwn8C+CpGvI0S6L6o589F4RXzZfMBjgHgV6CtR/8tn/3V/maTA5O0l8Y2drDbWfhjwtBbQoI4ootbmVEUDAVQLPAAHYVV8QeI/GOg6Bqer3nhvw+9rYW0t3KsWuzFykaFiFBtACcA4yRXcjtXK/Fn/klnjL/ALA15/6IejcZCP8AhLBbR248LeFRbxY2Rf21LtTHTA+x4GKq6TYeINGhSHSPBfg2whTcVS11WSJV3Y3YC2QxnaM+uB6V3dIvemkByp1DxtuZR4e8OZAB/wCQ7P3/AO3Oqc8Pii408WE/hLwlLYgKPs76xK0fykFflNljggEemBXZ/wDLd/8AdX+Zp9AjkmufGJlWU+G/DBlVSquddm3AHGQD9j4BwPyHpUn27xv/ANC74b/8H0//AMh11DMPel3fWgDlJG8b3y+T9n8P6OG4a5iu5b51HfajQxDPoSSPY9DraBo9todobSzMj5PmSzTNukmkYks7t3Yn+gGAAK1gc9jTB/r3/wB1f5mgBTncvSlfO09KCfmXg0OeDwaAD5vagBsdqXPsaQHjoaAGDPnv0+6v8zTiDkdKRT+/fg/dX+ZpxPI4NACMDt7UuD7UMfl6Glz7GgBFzjtUalvPfp91f5mnq3HQ0xW/fvwfur/M0ASHO5elDZx2pC3zLwaGbjoaAGXf/HrN/wBc2/lSRf6tfpS3f/HrN/1zb+VJF/q1+lADjRQetFAH5xUUUUAfpCeoobpTDDFkfu0/75FI0MWP9Un/AHyKAJaQdKb5MX/PNP8AvkUiwxY/1Sf98igAH/Hw/wDur/M089RUKwxfaH/dp91f4R6mnmGLI/dp/wB8igB7dKWo2hjx/q0/75FL5MX/ADzT/vkUAPHSmD/Xv/ur/M0nkx/880/75FMEMfnOPKX7q9h70ATHqOaU1CYY8j92n/fIpTDHg/u0/wC+RQBKKKiEMeP9Wn/fIo8mP/nmn/fIoAcv+vf/AHV/maceoqBYI/Of92n3R/CPU08wR5HyJ/3yKAJaKi8mP+4n/fIpfIj/ALif98igDmPhn/yLl3/2GdW/9OFxXTj/AF7f7o/rXKfDSFP+Ecu8ov8AyGdVH3R/0ELiumWGL7RJ+6X7q/wj3oAsN1FKe9QmGLK/u1/75FKYYsH92n/fIoAkoqIQRY/1a/8AfIo8iL/nkv8A3yKAF/5eH/3F/ma5nxj/AMjF4E/7DMn/AKb7yujEMfnt+6X7i9h6mq2saFpOtWottY0ux1C2DBxFdW6SoGHQ7WBGeTQBoHpS9q5T/hXPgj/oTfDX/grg/wDiaP8AhXPgj/oTfDX/AIK4P/iaAOrFMX/Xv/ur/M1y/wDwrnwR/wBCb4a/8FcH/wATTB8OvBPmsv8AwhvhvAA/5hcHqf8AZoA6w/eWlPSuV/4Vz4I/6E3w1/4K4P8A4mj/AIVz4I/6E3w1/wCCuD/4mgDqj0pRXK/8K48Ef9Cb4a/8FcH/AMTR/wAK48Ef9Cb4a/8ABXB/8TQB0w/17/7q/wAzWV4t1AaXoF5eNcTWvlR7hNFaPcmM9iY0UsV/vYHAycjqMv8A4V14I81l/wCEN8OYAH/MLg9T/s0l14F0W002+j8MaJoek315AbV7mCySMiJyN/3AC3AyFyASBmgcd9Tl9f8AF/imLWdXtoLYrptjEjzvp9vbSzxKYVdnSSe6j6MzYLQEcdCcip9VvtZN86war4nYh4LWGz0+LTRKzG381nkNxHt3fK2cMBnoKzdT8GeML6ZlubTQp44JnuLWZNSeKUTMQfNfdaSZxtGI87AMBvMwGGvqHgrXddkaTWn8KyJL5E8lrd6ZLfxfaFh2My5ljG3lsBlJ75z0l3dv66Ep669v6/r+meGNfuLVJdQ1PVdcuLIW9wZbfVIbTzYZYZ/KKr9mQAkkEYy2eMVuzeMTBDB5vh3XF1KeZoY9O8uHzm2pvLB/M8raF7+Z1+X73y1i6d8P7yGwn0y4utIi0xreRLdNM097YW8jTCXcEeWQEbhkAFQOgGOmrc+GNfuWs76XxFaf23aTO8Mo0z/RljdAjR+V5m/BwGz5ud3+z8tU/wCvv/yGlq/66FLxH8RIIPDst5oFjeajdtpsuoIqwjbbqoIBmDMp++CpVct8rccE1etvHNq19BayWV60RkitZr+NFNvFcSIGWI/NvydyjIUqCwBbOcZ9z8PJo9OS10nWvs0k1g+n3txPaiaSdGZn3r8yhHDSSEcMvzkbelRL8MrWPxTDqsZ0h0E8VzI8+jxS3fmIgUCO4YnYhKKcbSwO7DDIxML3fN/Wr/T8fuE720/rRfr+B6NQK5X/AIVx4I/6E3w3/wCCuD/4mk/4Vz4I/wChM8N/+CuD/wCJqhnTD/Xyf7q/zNSVyX/CuvBHnMP+EO8OdB/zC4PU/wCzT/8AhXPgj/oTvDf/AIK4P/iaAOqak7Vy3/CufBH/AEJ3hv8A8FcH/wATR/wrnwR/0J3hv/wVwf8AxNAHVLTB/r3/AN1f5muY/wCFc+CP+hO8N/8Agrg/+Jpv/CuvBHmsP+EO8N9B/wAwuD1P+zQB1dcr8Wf+SWeMv+wNef8Aoh6X/hXPgj/oTvDf/grg/wDiacnw78FIwZPB/hxWByCNMgBB/wC+aAOopE703yIf+eUf/fIpPIh/54p/3wKAFH/Hw/8Aur/M08/eFQrDF57/ALpPuL/CPU08wxbh+7T8hQA85oGaYYYv+eSfkKBDF/zyT/vkUAPWmD/Xv/ur/M0eTF/zyT/vkUxYYxM48tPur/CPU0ASn7y0r/dNRmGPcv7tP++RStDFj/Vp/wB8igCSkHTrTPJi/wCeaf8AfIoEMWP9Wn/fIoAUf69/91f5mnHqKhEMXnv+7T7q/wAI9TTzDFkfuk/75FAD2+7S1E0MW0/u0/75FL5MX/PNP++RQA9fu0xf9e/+6v8AM0iQx4/1af8AfIpiwx+e/wC7T7q/wj1NAE5+8tDdKjMMe5f3af8AfIoaGPH+rT/vkUAJd/8AHrN1+438qSLHlr16elJdRRrazbY0H7tug9qWLiNMccUAOPWig0UAfnHRRRQB+jxXleTQ68dTSnOR0obOO1ABt9zSKvHU07n2pF3Y7UAMVf8ASH5P3V/maeV5HJpg3faH6fdX+Zp53ZHSgAZeOppdvuaRt2O1L83tQAgXjqaYo/0h+T91f5mnjdjtTF3ee+cfdX+ZoAcy/MOTSsvB5NB3bh0pTux2oAaV46mlVcdzQd3tQN3fFADV/wBc/wDuj+ZrE1rxdoOiB31jVbaxSO4S1ZrhtiiR1DKuTx90g56AZz0Nba/65/8AdH8zXg3ibRZLfVtfvLbR7SzvZdYhjhk0lAJ2LxD78vn2rnf5gYqjcMGJLgmgaR6avxK8FyaWdQTxXon2UKrkm8QMMgsFKE7gxAPykbuCMZFRx/FDwM0zRDxdoe5ZPKJN6gXOzf1JxjH8XTPy5zxXnfh6z1ix8La5ZHUNXtbyBolktb22lRnRmZAoluJryAoxbkxKeFwRkjFa3l8V2niWex1TX7e2un1SO2h8u7spJmdreHMixnT0M21JRuIZCF+Xtkis3ZBtG57J4L02XStGmt55IZGlv727VomLKUnupZk5wOdsi57Zzgkc1tBSJWbsQB+Wa8wfU1PiLVhJq96niqKaaOy0uK4dlkhEJMZa3GV2E/N5pX73y7/4awLDWLg6PqR8O65ql/ANMt5dSuJLh53tJzIBKVLZMUgj81jEANpVcKueZUr/ANer/TXzsL+vxt/Xke1Q3NvNNPDDPFJNbsFmRHBaMkBgGHYkEHnsQamrwC9vIbOXU5NA1Xz/AA/cavD9qv7nWpraJoxZrtBvlDyBd6qN2eSNhbnFes/Da4u7rwVpk1/dx3kzq224R3kEke9vLO90Rn+Tb85Ubvvcg5NLVXA6bAowKMH1FJg+opXAaB+/fk/dX+Zp4HTk1GN3nv0+6v8AM08BuOlMAK+5oC8dTQQ3qKAG9RQAAe5pij/SH5P3V/makG72qNc/aHzj7q/zNADyOV5NBHB5NBzkdKDnHagBCOOppVHuaCWx2oG72oAYB+/fn+Ff5mnsPmHJ70wbvPfp91f5mnnO4dO9AAy8dTS7eOppDnb2pecdqAGqvA5NNA/fvyfur/M09c4HSmjPnv0+6v8AM0AKV+YcmlK8dTQc5HSg5x2oAXHuaRV4HJpefakGcDpQAwD9+/J+6v8AM04j5h1poDee/T7q/wAzTiG3DpQApX3NAX3NBDeooAb1FACBfc0xF/0h+T91f5mpBu9qYu77Q/T7q/zNADivK8nvQw4PJoO7cvSg7sdqAFAP940Y9zSjd7UfN7UARqB9ofr9xf5mnkDcOtMXP2h+n3F/mae2dw6UAIy/KeTTiOOppG3bT0pefagBqD5RyaaB+/fk/dX+Zp6Z29qYN3nv0+6v8zQA4r8y8mldeDyaDncvSht2O1AC7fc0gXjqaX5vak+bHagBqj9+/J+6v8zSkcjk01d3nvyPur/M04hsjkUAKVyOppQvuaQ7sHkUDdz0oARF+XqaYq/v35P3V/makXOO1MXd579Pur/M0API+ZeTQw+XqaDncvSg5x2oAju/+PSb/cb+VNj/ANWn0p13/wAek3+438qbH/q0+lAD6KKKAPzjooooA/R8nleKHPHSlPUUN060AGfakU8dDTqRelAEYP8ApD8fwL/M08nkcU0H/SH/AN1f5mnk8jigBGPy9KXPtQx46UtADQeOhpqn9+/B+6v8zUg6VGv+vf8A3V/maAHE/MODSk8dDQfvClPSgBpbihWzSnpQKAGL/rn/AN0fzNZ1voOkWd4buz0qwgumeSUzRW6K5eTG9twGcttXJ77RnpWkv+vf/dH8zTj2oAz9L0fTdKe5k0zTrOzkupDLcNbwLGZn5+ZyoG5uTyeeatwwQwyTPFDHG8zB5WVQDI20Llj3OFUZPYAdqmooAyPDWr/23ps135HkeXeXdps3bs+RcSQ7s4H3vL3Y7ZxzjNaatlypGMAGuY+Gv/IuXn/YZ1b/ANONxXTj/XN/ur/M0AOJ5pSeKCRmgmgBOaKUYpcUARKf9If/AHV/maeTytNU/wCkP/ur/M0/IyKAEcnFLng0jEYpc8GgBFPA4NMU/wCkPwfur/M1IOlMX/j4f/dX+ZoAcT8y8GgnrwaD95aG6GgAJOOlKpoJGKARQAwf8fD/AO6v8zTm6j8aaP8Aj4f/AHV/mac3UfjQAMfl6GjPHQ0rfd6UvagBiHgcGmhv378H7q/zNSL0HFMH+vf/AHV/maAFLfMvBpSfl6GlP3hQelABn2NNVuBwafSDoKAGL/x8P/uL/M089RTF/wCPh/8AcX+Zp56rQAjnAoDcdKV+nNHGKAEB9jTFP+kPwfur/M1IKYv/AB8P/ur/ADNACk/MvB70E9eDSn7y0p6UAJk4pQaCRigGgBi/8fEn+4v8zTm+8Kav/HxJ/uL/ADNOb7woAGPynilzx0ob7ppaAGofl6UwH/SH4/hX+ZqRfuimD/Xv/ur/ADNADifmXg0M3HQ0p+8KG6UAGfY0m7jofyp1A6UARKf37/7q/wAzTieRxSD/AF7/AO6v8zTieRxQAMflPFAPXilY/KaAaAEQ/L0pin9+/H8K/wAzUi9KYv8Ar3/3V/maAHE/MvFKx46UH7woPSgCK7/49Jv9xv5U2P8A1afSnXZH2Sb/AHG/lTYuYk+lAD6KKKAPzjooooA/R0wxZH7tP++RSNDFj/Vp/wB8inkcryaHHHU0AJ5MX/PNP++RSLDFj/Vp/wB8in49zSKOOpoAhEMX2h/3afcX+Eepp5hi3D92n/fIpQP9Ifk/dX+Zp5HI5NAEbQxbf9Wn/fIpfJi/55p/3yKcRx1NOx7mgCMQRAYEaf8AfIpiwx+e/wC7T7q/wj1NSgcdTTFH79+T91f5mgAaGLI/dp/3yKDDFg/u0/75FOK8jk0pXryaAGCGLH+rj/75FHkxf884/wDvkU8L7mjb7mgCFYYvPfEafcH8I9TTzDHuHyJ/3yKFH79+T90fzNOYfMOTQAnkx/8APNP++RR5Mf8AzzT/AL5FLgerVz3j7X5/CvhW91u306TUlswsk8CS+WwhyN7rwQSq5bBxkA8igCp8NYU/4Ry7+Vf+Qzq38I/6CFxXTiGITN+6T7q/wj1NeOfAP4lweMLm+0nRtJuxZwXF9f3N7csqCPz7yWWGMKN25ir88jBVuvBPso5lb/dX+ZoAGiiyP3af98inGGLn92n/AHyKcV5HJ/Ojb7n86AGCCLH+rT/vmlMEX/PNP++acB7n86Me5/OgCFIYvPfEafdX+Eepp5ijyP3af98ihR+/fk/dX+Zp5HTk0AN8mL/nmn/fIpDDFj/Vp/3yKft/2jQV/wBo0ANEMf8AzzT/AL5FMWKP7Q/7tPur/D7mpQPc/nTFH+kPyfur39zQApij3D92n/fNDQx4/wBWn/fNKR8w5PfvSsOOp/OgBvkx/wDPNP8AvkULFHj/AFaf98inbfc/nQo46n86AIhDH5z/ALtPuj+EeppzQx7h+7T/AL5FAH75+T91e/uacy8jk/nQAjQx4/1af98il8mP/nmn/fIpWX5ep/Ojb7n86AGrDHj/AFaf98imLDH57/u0+6v8I9TUqrx1P50wL+/fk/dXv7mgAMMW5f3af98ilMMW3/Vp/wB8inEfMvJoI46mgBvkxf8APNP++RSLDFgfu0/75FSY9zSAcDk0AQrBELh8Rp9xf4R6mnmGPI/dp/3yKFH+kPyfuL/M08jleTQA3yYv+eaf98ijyYv+eaf98in49zRj3NAEYgi/55p/3yKYIIvtDny0+6v8I9TUwHuaYB+/fk/dX+ZoAGgiJH7tP++RSmCLB/dp/wB8inMORyaUjg8mgCIW8WP9XH/3yKX7PF/zzj/75FOA46mlx7mgCFYYxcP+7T7i/wAI9TTzDHuH7tP++RQv/Hw/J+4v8zTz94cmgBpgi/55x/8AfIoEEf8Azzj/AO+RTiPdqAPc0ANWGMDHlp/3yKYIY/Pf5E+6v8I9TUyjjqajA/fvyfur/M0ABhjyP3cf/fIpTDHg/u0/75FKQcjk0pHX5jQAwwx/880/75FKIY/+eaf98inEf7RoA/2jQBEsMX2h/wB2n3V/hHqacYYty/u0/wC+RSqP378n7q/zNOI+YcmgBjQxY/1af98igQxc/u0/75FPI+U8mgDryaAGLDHj/Vp/3yKYsMfnv+7T7q/wj1NTKOOppij9+/J+6v8AM0ABhj3L+7T/AL5FDQx4/wBWn/fIp5HK8mlI46mgCC5iRbWbagHyN/KliGI0xxxS3Y/0Sbr9xv5UkQHlJz2oAdRRRQB+cdFFFAH6PndlelI+7HalLcjg0M3HQ0AL83tSLux2pd3saRW46GgBg3faH6fdX+Zp53ZHSmBv9Ifg/dX+Zp5bkcGgAO7Hal+b2pC3HQ0u72NACDdjtTF3ee/T7q/zNSBuOhpin9+/X7q/zNACXU8VrbS3F1KkMEKGSSRztVFAySSegArlI/EWv6qPO8O+HInsSf3dzql81n5y9mRFikfae24KfbpS/EFReXHhfSZQTa6jqyxzr2dIoJrjafUFoFBHcZFdaBgYHSgDlRe+OP8AoX/Df/g+n/8AkOl+3eOP+he8N/8Ag+n/APkOurooA5MXnjcSFv8AhHvDfIAx/b0/v/05+9L9v8b/APQu+G//AAfT/wDyHXV0UAcp9v8AG/8A0Lvhv/wfT/8AyHTJrrxpNE8U3hrwzJG4Ksja7MQwPUEfY+RXXUUAeRfDDwb4j+HeiXWnaP4f8PSLc3L3Lyy67PvOThVz9j6KoA+uT3rrxd+Nw5P/AAj3hvkAf8h2ftn/AKc/euuooA5T7d43/wChe8N/+D6f/wCQ6X7d43/6F3w3/wCD6f8A+Q66qigDlPtvjf8A6F3w1/4Pp/8A5Do+2+N/+hd8Nf8Ag+n/APkOurooA5P7d41jcySeHNCdMAFYNblZzjPQNaqCee7CtTw7r8GtLPGIZ7PULUhbqxuQBLASMjOCQVODhlJU4ODwcbFcn4mQWfjXwjfwArPdTz6ZMRxviNtLOAfXDwDHpub1NAHVkkelICfalJ9jQD7GgBBu9qYu77Q/T7q/zNPDH0NMU/6Q/wDur/M0APO7cOlDbsdqCeR+NIzHB4NADvm9qQbsdqCSO1IpOOlACDd5z9Pur/M0rbsjpTQf378fwr/M05icjigBW3be1L83tTWJ29Kdk46UAIu7HamDd579Pur/ADNPUnApgJ89+P4V/maAHHduHSlO7Hagn5l60pPy96AD5vakXdgdKXP1pAeB1oAaP+Ph/wDcX+Zpl7cRWltJcXMqQwRKZJJHbaqKBkknsAKeP+Ph/wDcX+ZrlfiAovJ/DGlS5NrqOrpHOvZ0jgmuAp9QWgUEdxkUANh8R69qy+f4d8PRSWDf6u51S9az84dmRFikfae28KT6VL9u8cf9C94a/wDB7P8A/IddVgDoKWgDlPt3jj/oXvDX/g9n/wDkOmreeOBIzHw/4bOQBj+3Z+2f+nP3rraKAOU+3eOP+he8N/8Ag+n/APkOj7d44/6F7w3/AOD2f/5Drq6KAOU+3eOP+he8N/8Ag9n/APkOj7d44/6F7w3/AOD2f/5Drq6KAOTF543Ehb/hHvDfIAx/bs/bP/Tn70v27xv/ANC74b/8H0//AMh11dFAHKfbvHH/AEL3hv8A8H0//wAh0fbvHH/QveG//B9P/wDIddXRQByn27xv/wBC94b/APB9P/8AIdNN/wCNY3aSTw3oTpgApBrkrOcZ6BrVQTz3YV1tFAGLoGvQ60JUWGezv7UhbqyuVAlgJGRnBIIODhlJU4ODwa2a5PxNGLPxv4Qv4Plmu7ifTJiP44jbSzgH1w1uMem5vU11jUAJ82e1Iu7Hal3c9DQrfL0NADF3faH6fdX+ZpxzuXpTVb9+/B+6v8zTi3zLwaAFbdg9KBu56UFuDwaA3Xg0AC7sdqYu7z36fdX+Zpyt8vQ01W/fvwfur/M0APO7cvSht2O1IW+ZeDSs3HQ0AR3f/HpN/uN/Kmx/6tPpTrv/AI9Jv9xv5U2P/Vp9KAH0UUUAfnHRRRQB+kB6ihulMMEWR+6T/vkUjQRY/wBUn/fIoAlpF6UzyIv+eSf98ihYIsf6pP8AvkUAA/4+H/3V/maeeoqAQRfaH/dJ91f4R6mnmCLI/dJ/3yKAJG6UtRGCLH+qT/vkUvkRf88k/wC+RQA8Zx0pi589/wDdX+ZoEMQHESAf7opiwxee/wC7T7q/wj1NAHN+M/8AkY/An/YZl/8ATdeV1dcl4xRE8R+BNqqudZl6DH/MOvK62gAooooAKKKM0AFFZOgav/behR6jZxx/vfM8pTJlW2uyjLY4zt54OM98V5ze/E/xBBqMNsnhm1lHnSQu0P8AakysybgQrrp+GwVPK7unpyAD1yiuW07xhaReG7XV/FV1o+iRXTYhMl8yxsMZAzNHEwfhsqVyMflq3fiDRbO6t7a71fT4Lm5ZFhiluUV5S+dgUE5JbBxjrjigDUorNi17SJtU/syHVLCTUcM32RbhDLhThjsznAIIPHBFaVABRRRQAVynjI/8VF4F/wCw1J/6b7yurrlPGYB8Q+BQRkf21J/6b7ygDqs0Zpnkx/8APNP++RR5Mf8AzzT/AL5FAEg6VGv/AB8Sf7q/zNch4h8UfYZLyHSbGw1K5tpUjeNbokoSjOVdI45JFfCkhQjbsjHpXO6P8Rbq603UdQv/AA5b2cdvYT3kYaedN/k7cqwmtoioO8fONw69wRSTTD+v0PUz95fxof7prx+T4soks8e/4fHyYhLuXxZlXzu+VT9m5YbeR/tD1r0H/hItHit5JtSuLLT0jCFnubiJV+aMSf3sjC5+8BwCenNMNb2OgNC1h22vaNfLcJo91YapdQQrObazuInlKsu5DjcAAwIwSQDkHOOa5u38fi6iupYfCWqR29u/ly3lxcWKWsbZ2ndKtwwIVgQ2wMVIIxnigDvV/wBe/wDur/M05vvLXLal4msdLvBHqdtt2QqZfs0UlyfNYEiONEjLyYUMxIAwoBIweM/R/HunappM97BourqY0eZFl06S2jmiDYWRJ51jiwykMAzg4PTigDuz0orzuTx1dx2s9xL4G1pILedop5GubALEq5yzE3HGBzzhf9rvVLxB8Q7rS9cj03+xtGgnlgt5obfU9ZS2uJTK7IEREikVmUqc7XIwR64B0uB6iOlMH+vf/dX+Zrk/D3imPV76G2n8PappizW8lzHPd/ZjGyoyKw/dyuVPzjhgOh9K0bbxB4budNfU7bWNJm08MYzdJdRtCGAJI3g4zjnGaAN1uopT0rDn1/w7b6NFq9zqukxaTMQI717mNYHJzjEhO09D37Ut7rnh6xu4LW91XS7e6uSghhmuI0eUvwgVScnODjHXtQBt9qTtWJNrej2tvNPqNxZ2MCXJtfMuZ4lVpOwzuxk9lOG9qm8O6hZa/oNjq1nAyW17CsyLKoDgEZGQCRn8aSaewGkv/Hy/+4v8zXL+Mv8AkY/An/Yak/8ATdeVqaxqmj6JJC+sXVnZRXEiW8T3DqivIQ5CgnjJCn8qyfF6Rr4j8CGNVGdZk5Udf+JdeUwOuooooAKKKKACimyOERmPRQSecfzrDj8W6Ftsxcatp9tPdRiSOCW7i3nKB8DDENhWBypIwQckHNAG9RXNat4xsLTw9FrenJ/bWmu+37RYXVt5Y5253yyoh+b5cAk5OMVX0Xxdc6td2ML+H77SBcxmcDV54IZWiA5KRI7uWBKZDBAA3JzgEA62iuD1P4k6dp1oryWWo3F1I48i2s7Oe4aVCSV+ZIyqu0YLhGIOCM4BzXWaLqtvrFn9ptY7yOMMU23dpLbPkf7Eqq2OeuMULVXE9DQooooGFFFFAHKeMv8AkYvAn/YZk/8ATdeV1TVyvjVQ3iHwKGAI/tmTg/8AYOvK6byIv+eSf98igCQmgGmGCL/nkn/fIoEEX/PJP++RQAL/AMfD/wC6v8zTz1WoRDF9of8AdJ91f4R6mnGCLI/dJ/3yKAJG6GlqIwRY/wBUn/fIpfIi/wCeSf8AfIoAevSmL/r3/wB1f5mkWCLH+qT/AL5FMWCLz3/dJ91f4R6mgCc/eWhvu1GYIsj90n/fIoaGLb/qk/75FADbsj7LN1+43b2ojx5SdelNuYo1tJtsaj5G6D2p0XESYwOKAHUUHrRQB+cdFFFAH6PleRyfzoZeOp/Og7sjpQ27HagBce5/OkVeOp/Ol+b2pF3Y7UAMC/6Q/J+4v8zTyvI5NMGftD9PuL/M085yOlACMvHU07b7mmtnHal59qAALx1NMVf378n7q/zNOAbHUUxQ3nvyPur/ADNAHNeM/wDkY/An/YZl/wDTdeV1dcp4z/5GPwJ/2GZf/TdeV1dABRRRQAVz3ie6vpfL0jSILgXV6jB70JiK0j6M5Y8F/wC6gyScEgKCa6Gik1cDj7Cxk8KzjTLK3n/sK62pbPbR72sZCMEFcH92x+bdggMW3YUjHjV18M9Tm8R2+nx6HpZmQNM8v2e1EO0gjmX+xxGTkj5csfYdR9K0UwPHI/CvinS9E0LT7cXbbILqGSSyXT/MtS7psiDSRKotsBi2xN+Qvy4G0ZyaJq0n9paFDo3m6jc+GtN057jzI8WUmJwWky/KqeR5e45X6GvdKKaZLjtb+tv8jyTw3p97e61LFbaSI7eDxHc382p749rbd8e3G7zPMPC/d27P4s/LXrdFFRGPKkv62S/Qrrf+t7/qFFFFUAVxXxHtZr3U/BNvbX9zp8r60+25tljaRMWF4eBIjrzjHKngnGDg12tcr4y/5GLwJ/2GpP8A033lADR4X1f/AKHrxJ/3407/AORad/wi+r4/5HrxJ/3407/5FrqO9OoA8q8b6Fr97f3VjaWSalbvpo23V4InM88UUyjehURZZ5UOCAD83ygCuZ0LwzqGmpq2l/2WsM8lvLZtLY6eqRoZ2gVW3rbQRS7dsjEqpAC4JNe8/N7U3cS7LxwB/X/CmnZ3CS5lb+u55Z4h0TVNMvNVnm8VeLZo3sYYla2022uGlYmb5NsVoTgccgDG7k8irtr4av38U6dfTWQNvBfx3O5nX5VFg0O7Gc5DtjGM9/evRwGFKR61K3v/AF/WoS1d/wCun+R5jpfh250RNInn05Yrez0rUIJxHbi5w808TqDFH80m7axIXrjkgmuC0XwXrNnrV5c6VYadb6pEvmidfBsdvJZZkXbFA32hbeT5WYlw7uFBBJOBX0ZSDd3xRbby/r9Qe1jxfVtDuNY127vTo4uo9VsY7S4uY9Lm02d5PL3ACXzfNVSyoWEihQvyb2YbDPb6PPo2o67ZwHxJPdyooluZ5ru4ie1SKM4EjJLuYuZQEjxJ85xjgj18E+cw/wBkfzNO+b2o8v6/r9NA63PE9I0HWL3RtItdFv8AxDYW2iyMfsx0+G2RolLrH5QuISxkaNwfmZgMbX2scibxH4X1icjW9NnkjsbSzso7dnju/tEohkZm82xgECk/PwuGwEwEG75fZvmow3rRcFoeXSaNq+o6T4isbqyaFtUtJY9NLg7Y1bc7rNjd5ZZ2JxkjZsXO5SKyvEFjqUt+utXHh5rRbjUNMji0uaWFpHMBkZn+RzGGO5VXLD/VjO0dPZcN6im7m81lIyoUH+f+FK3TzX4O4mrp+Z5LfeF/EG+01m3g1K0f7Xeztp2nSWZuIVnCBSfP3QE/IxfBzmVsMedzoPAt9b+HdXtF04NNJotjZQK88ch3xNKxTcAg+XevO1R0x0r1v5qOaqOisKSujzh9B1Sw1iLVf7KfUUi1C9b7JHJCHKTKoWUF2C8bSCMg4c8HobPhbwhrVr4Z0u2k8Savo8kNukbWNkllJDAVUAhGe3ZiOM8nv2HA7+j5qmMVFJL+rFHifxq8DeJNa8GzaTpmsa5r13eTwRrDcpYRwxAMXMrssCMAApHysDlgORkGl8P/AIea34AuPA1trviW41Qvq7hLJcm3tcafecRlvm/LaOemea91X/j4k/3V/ma5nxn/AMjH4E/7DMv/AKbryqA6uigdKKACg0UUAQXql7SZF5ZkIH5V5Rp3gnU4/Dv2a701DcNPopdWeNg0dv5Hm5OcELtk479s5GfXqD0o1TuvL8Asrp+v4nkXjPQbqfQNS05rGIzXOpz3sTy6ImqrHFwDKqMwRXAYkA7nYbgqMeKyvh9omo+Hfs08NpZ2ui3nnQ3Udt4Vkie7/eMFaZTKZkJy7KPLEaqxXgbMe4UtTFcsbf12GeGaJ4I1E6XBZGxu9On09biVJdMaXShIrxnCukM7IZHlCv8AI2FVFDBOEPonwx8tPD32a1ttVgsrZxFANSWVZCPLQtgTASbQ7OBuz0ODt2gdfRVdWxCiiiigAooooA5Xxn/yMXgT/sMy/wDpuva6lq5bxn/yMXgT/sMy/wDpuva6ht3agA2+5oVeByaBu9qF3YHSgBij/SH5P3V/maeRyvWmLu+0P0+6v8zTznI6UADLwetLt9zSNuwelLz7UAIq8dTTFX9+/J+6vf3NOXdt7U1d3nv0+6v8zQA8jleTQw+XqaDuyvSht209KAGXf/HpN/uN/Kmxf6pPpS3X/HpN/wBc2/lSRf6pPpQA40UHrRQB+cdFFFAH6Pk8jg0M3HQ0pHIoYcUAGfY0itx0NOpFHFAEYb/SH4P3V/mafu5HFNH/AB8Px/Cv8zTz1HFAATxQehpTTT0NAAp+Wmqf37/7q/zNPUjbTF/17/7q/wAzQBzHjP8A5GPwJ/2GZf8A03XldXXO+N9Ou7yws7vS0WXUdLulvreJm2+aVVlePPYtG8igngFgTxVvw94i0zXoWbT7lTPHxPayfJPbt3WSM/MjD0P8qANeiiigAooooAKKKKACiiigAooooAKKKKACuV8Zf8jF4E/7DUn/AKb7yumubiG1gea5ljhhQZaSRgqqPcnpXIWV0ni/xRp2o6cfM0HSDJJFdfwXdy6GPMR/iREaQFhwS/B+U0AdizYo3e1K2KOKAEDcdDTFP79+D91f61IMYpi/69/91f60AOJ+YdaGPsaU/eWg4oAQnjpSg0E0oNAEY/17/wC6v8zTz94Uwf69/wDdX+Zp5+8KTACaATigmgEUwAfdpg/4+JP91f5mnD7tNH/HxJ/ur/M0AOJORSk9aCRkUpNACHpQKD0oWgCNf+PiT/dX+ZrmfGf/ACMfgT/sMy/+m68rpl/4+JP91f5msLxvp13eafaXelosupaXdJfW8THaJioZXjz2LRvIoPQFgTxmgDoqKyPD3iLTNfhZtPuVM8fyz2snyT27d0kjPzIwz0I/QitegAooooADSUppKACiiigBRRSUooAKKKKACiio7m4htYHmuZY4YUGWkkYKqj3J6UAcz4z/AORi8Cf9hmX/ANN17XUN1rjbO6Xxd4p07UbDL6DpHmSQ3X8F5cOhj3RH+KNEaQF+jFxj7prszQAimhTwKXIoUjAoAjVv9Ifg/dX+Zp5bkcU1f+Ph/wDdX+Zpx+8tACk8UGg9BQe1ADVbjoaarfv34P3V/makXpTF/wBe/wDur/M0AKW5Xg0rN8p4NKfvLQ/3TQBFd/8AHpN/uN/Kki/1a/Slu/8Aj0m/3G/lRFzGuPSgBaKKKAPzjooooA/R0wx5H7pP++RSNDHj/VJ/3yKeRyvJ/Ohxx1P50AJ5Mf8AzzT/AL5FIsMeP9Un/fIp+Pc/nSKOOp/OgCJYY/Pf92n3V/hHqaeYY8j5E/75FIo/0h+T9xf5mpCORzQAxoY/+eaf98igwx4/1cf/AHyKcw9zQRx1NADVhiC48tP++RTFhj89/wB2n3V/hHqalUcdTTFH79+T91f5mgA8mL/nmn/fIrJ1jwt4f1qRZNY0LStQdRgG6s45SB7bga2aWgDlP+FceB/+hN8N/wDgsg/+JoPw48Ef9Cb4b/8ABZB/8TXVmhaAOSX4c+CPOYf8Id4bxtH/ADDIPU/7NSf8K48Ef9Cd4b/8FcH/AMTXTr/r2/3V/maXmgDl/wDhXHgj/oTfDf8A4K4P/iaP+FceCP8AoTfDf/grg/8Aia6gU6gDzD4feAfB11oN1JdeFNAmkGranGGk06FiES+nVFyV6BVCgdgAO1dCPhz4I85s+DvDfQf8wyD1P+zTvhof+Kcu/wDsM6t/6cbiun/5bN/ur/M0Acz/AMK48Ef9Cb4b/wDBZB/8TR/wrjwR/wBCb4b/APBZB/8AE11RNFAHK/8ACuPBH/Qm+G//AAWQf/E0yX4e+BYYnll8IeGkjQFmZtMgAAHUn5a62igD428Ga1pp+Ocmr3PgyztvBuoGO2ti2kokNvG7FLecfJhS7xtk57vydvH2J5EIAAijC4wBtFc1p6/8XT8Q/wDYF03/ANH31dQFoAb5EP8Azyj/AO+RR5EX/PKP/vkU/YKNgoAYIIsf6pP++RTFhi89/wB2n3V/hHvUoUY6mmqv79+T91f60ABhi3L+7T/vkUNBFj/VJ/3yKcV+YcmlZRjkmgBnkRf880/75FHkRf8APNP++RT8D1NGB6mgCIRR+c37pfur2Hqaf5Uf/PJfyFIP9c3+6v8AM1i33i/w7YW9rcalrum2EVxuERvLlLcuVOGADkHKngjqD1oA2/Ki/wCeS/kKDDFj/VL/AN8iueuvGekQRQSn+03E7usSw6VdSu+zG5gqxlinzLh8bTngmiy8ZaTd3tvaJDrMMs7+XG11ot5boWwTgvJEqjoepFAHQCGPH+rT/vkUxYozM37tPuj+EepqYLgYyfzpioBM3J+6O/uaAF8mP/nmn/fIo8mP/nmn/fIp20Z6n86hS4t3u5LVbiM3MaLI8IcF1ViQrFeoBKtg98H0oAk8mP8A55p/3yKPJj/55p/3yKjhuLaaaeGG4jkmgYLMiOC0ZIDAMOxIIPPYg1NtHqfzoAiEMfnMfLT7q/wj1NOaGPI/dp/3yKRVHnNyfur39zT2UZ6mgDI1nwr4f1uRX1jQtK1B1GA13ZxzED23A1n/APCufBH/AEJ3hv8A8FcH/wATXThQT1NO2jHU/nQByn/CufBGf+RO8N/+CuD/AOIpifDrwR5rD/hDvDmMD/mFwep/2K6wqM9TTU/1z/7q/wAzQBzP/CuvA/8A0Jvhv/wVwf8AxFH/AArrwP8A9Cb4b/8ABXB/8RXVEjNJkUAct/wrrwP/ANCb4b/8FcH/AMRXN/D7wD4OutBupLrwpoE0g1bU4w0mnQsQiX06quSvQKoUDsAB2r06uV+Gn/IuXf8A2GdW/wDTjcUAMHw58EGZh/wh3hzGB/zC4PU/7NP/AOFceB/+hO8N/wDgrg/+Jrps/v2/3V/mafnmgDlv+FceB/8AoTvDf/grg/8AiaP+FceB/wDoTvDf/grg/wDia6hqd2oA5X/hXHgf/oTvDf8A4K4P/iaW38AeDbe88y38JeHopEClWTTYVIOT0IWupWox/wAfL/7q/wA2oARLeCNFRIo1ReAAoAFOMUf9xP8AvkU4rk9TSFfc0ANMMf8AcT/vkUCCP+4n/fIp5XjqaUL7mgCBYo/tDjy0+6v8I9TTzDFuH7tP++RQP+Ph+f4V/macQdy8mgBDDH/zyT/vkUeTF/zyT/vkU4j3NAHuaAGrDHj/AFaf98imLDH57/u0+6v8I9TUqjjqaYo/fvyfur/M0ABhjyv7tP8AvkUrQx7f9Wn/AHyKcR8y8mhx8p5NAEFzEi2k21FHyN0+lLECI1xxxTrv/j0m5P3G/lTYwPLX6UAPooooA/OOiiigD9HznI6UNnHagtyOD+VDNx0P5UALz7UgzjtS7vY0gbjofyoAYM+e/T7q/wAzTucjpTQ379+D91f5mnluRwfyoAGzjtRzjtQzcdD+VG7joaAAE47Uxc+e/T7q/wBaeG46GmK379+D91f60APOdy9KGJx2oLfMvBoZuOhoABnHahM4HSgN7GkRuBwaAGrnz36fdX+Zp5zkdKYrfv34P3V/macW5HBoAX5val+b2pN3saN3saAOU+Gf/IuXf/YZ1b/04XFdR/y2b/dX+Zrl/hn/AMi5d/8AYZ1b/wBOFxXUf8tm/wB1f5mgBzE5HSlJPPShiNw60Ejng0AAJ9qOfagEe9Lke9AHIajZ+ILPxpfatodlpV9Dd6fa2rpeX8lq0bRSXDZG2GTcD5w9Mbe+al+3eOf+hf8ADX/g9n/+Q66Zf+Ph/wDdX+ZqSgDlPt3jj/oXvDX/AIPZ/wD5Do+3eOP+hf8ADX/g9n/+Q66pzxRnigDlft3jnH/Iv+Gv/B7P/wDIdNW98b+c3/FP+Gs7R/zHZ/U/9OddatMX/Xv/ALo/maAOY+3eOP8AoXvDX/g9n/8AkOj7d44/6F/w1/4PZ/8A5DrqqGoA5X7d44/6F7w1/wCD2f8A+Q6Pt3jj/oXvDX/g9n/+Q66nPFCmgDl7a68YS3qx3Wi6DBA2xZZYdZlkeNSTllU2gDMBkgEgH1FedXUo1Frd0ubvUbi0a4jRrS7ktJtULXG0hWtCg3KiQsXK+WN67toO9faSN0sisuVKAEevJrD1Pwb4W1W5WbVfDei3s4QRLJc2MUjBAMBclc4HYUDuea3ep22l+HLH7XrH2O9kstShB1LVHieC4YxkQefM28FRgBickDcOCKTwhrdhJry2a65pNwZ7m2Nta23imTWGZlExkIM2HXgrkBccA5649Y0jw/ouiIE0bSNN09AWYLaWyRAFsBj8oHXaufXaPStCSOOTZ5iI+xgy7gDtI6Ee9G5LWlvU8EvtdvI9A1GbTtc1OTXhpF/LrEC3Ly/YbhceXhCQIGDblVVC71GcNjNaGp6tcxWer/8ACN6xNf8Ah0T2X2i+udVlVI2YyC4T7UN7wqNsG7aMJvONmSR7Jqdlbapp1zY30fm2twhjlTcV3KeCMjBH4VYVgHZcHAAOfz/wpW9239b3C2tzx/w4t54gTQLG81u7fT5X1Bkk07VLk+bEjR+WPtO2OSUKScPzuA+8wJzQ0jUtSfQNRv1vLk38nhvSGnu1OZQhluPNkBAPzhC7ZAzkV7juHpRn2p9Gu5cWkn5/53PLPBU9zDqXiOTwKtlrthLdxMbnUNYlAOLaJRsl8qUyjhgWLcEYyeg6kX3jf/oXvDf/AIPp/wD5Drq8+1Nyc9qCTlBfeOPNbHh7w1naP+Y7P6n/AKc6U33jn/oXvDX/AIPZ/wD5DrqB/rn/AN1f5mpKBnKC+8c/9C94a/8AB7P/APIdL9u8cf8AQveGv/B9P/8AIddVRQByn27xzn/kXvDX/g9n/wDkOmi+8b+Y3/FPeGs4H/Mdn9T/ANOddbUY/wBc/wDur/M0COX+3eOP+he8Nf8Ag9n/APkOgX3jj/oXvDX/AIPZ/wD5DrrKKBnK/bvHH/QveGv/AAez/wDyHVzwPpd5pGgG31MW4vJby7vJFt5GkjQz3Ms20MVUtgSAZ2jOOgreoWgRECfPfp91f5mn5PHSmg/v34P3V/madkccGgBTux2pfm9qQnjoaXPsaAEXdjtTF3ee/T7q/wAzT1PHQ0xT+/fg/dX+ZoAeS24dKCWx2oY/MOD+VBPHQ/lQAvze1IpbA6Uu72P5UgbgcH8qAGLnz36fdX+Zp5zkdKYrfv34P3V7e5p5bkcH8qAEYtt7U75vams3y9D+VO3ex/KgBFzjtTFz579Pur/M09W46H8qYrfv34P3V7e5oAec5XpQ2dp6UFuV4P5UM3y9DQAy6/49Jv8AcP8AKmxj92v0p11/x6Tf7h/lTY/9Wv0oAdRRRQB+cdFFFAH6QHqKG6UwwxZH7tP++RSNDFj/AFSf98igCWkHSm+TF/zzT/vkUghix/qk/wC+RQAD/Xv/ALq/zNPPUVCIYvPf92n3V/hHqacYYsj92n/fIoAkbpR2pjQxY/1af98ijyYsf6tP++RQA8dKYv8Ar3/3V/rSCGLH+rT/AL5FNWGLz3/dp91f4R70ATH7wobpUZhi3L+7T/vkUrQxY/1Sf98igCQUifdpghix/q0/75FIkMW0fu0/75FACr/r3/3V/maefvCoVhi89/3afdX+Eeppxhi3D90n/fIoAloqPyYv+eaf98ijyYv+eaf98igDmfhp/wAi5d/9hnVv/ThcV0v/AC3b/dX+Zrl/hpEn/COXY2r/AMhnVv4R/wBBC4rpRDF5zfuk+6v8I9TQBYPWg1EYos/6pfyFKYosf6pf++RQBJmjNReVH/zyX/vkUeVF/wA8V/75FACj/Xv/ALq/zNOOdwqJYYvOb90n3V/hHqaeYYsj90n5CgCT8qQ0zyYv+eSfkKPJi/55J+QoAetMX/Xv/uj+Zo8mL/nkn/fIqNYo/ObES/dXsPU0ATN1FKehqMxR5H7pf++RSmKP/nkv/fIoAcOnf8qX86YIosf6pP8AvkUeTF/zyT/vkUAC/wCvf/dX+Zp57VCsUfnv+6T7q/wj1NOMUfH7pf8AvkUASUUzyYv+ea/98ijyYv8Anmv/AHyKAHjpTB/r34/hX+ZoWGPH+rT/AL5FMEMfnv8Au0+6P4R6mgCY9RQT1pjQx5H7tP8AvkUhhj5/dr/3yKAJB0paiEMeP9Wv/fIpfJi/55p/3yKABf8AXv8A7q/zNPNQLDH5z/In3V/hHqakMMf9xP8AvkUDH0VH5MX/ADzT/vkUeTF/zzT/AL5FAElRj/Xv/ur/ADNHkxf88k/75FMEMXnN+6T7q/wj1NAE56ig0wwxZH7pP++RQYYv+eSf98igB46UVGIYv+eS/wDfIpfJi/55J/3yKAAH9+/+6v8AM08npUKwxec/7tPur/CPU08wx8fu0/75FAh56UtRtDHj/Vp/3yKPJj/55p/3yKAHjpTF/wBe/wDur/M0iwx4/wBWn/fIpiwx+e/7tPur/CPU0ATn7woPSozDHuH7tP8AvkUphjx/q4/++RQBJSDoKZ5Mf/PNP++RSLBHgfuk/wC+RQA4f69/91f5mnHqKhWGLz3/AHafdX+EeppxhjyP3Sf98igB7fdNOqJoY9v+qT/vkUvkx/8APNP++RQA9elMX/Xv/ur/ADNIsMWP9Un/AHyKasMXnv8Au0+6v8I9TQBMeq0N92ozDFlf3af98ihoYtv+rT/vkUAF0f8ARZuv3D/Kmx48tevT0pLmKNbSbbGg+Q9B7UsXEaY449aAHUUUUAfnHRRRQB+jxXleTQ68dTSnOR0obOO1ABt9zSKvHU07n2pFzjtQAwD9+/J+6v8AM04jkcmmjd578j7q/wAzTiGyORQArj5Opoxx1PSkYHZ2pcNjqKABRwOaaP8AXvz/AAr/AFpyA4HNNGfPk5/hX+tADiPmXk0MBjqaCDleRSMDjqKAHBeOp/OkVfl6mlG7HakTO3tQA1f9e/X7q/zNOP3l601f9c/T7q/zNOOcjpQAv50fnRWX4l8QaZ4Z0ttS1y6FpYLIkbzsjMqF2Cru2g7RkgZPAzyaAMn4Z/8AIuXf/YZ1b/04XFdOP9e/+6v8zXnPwo8YeH72ObRbDVrW81OTUNVvBFbN5oEJv5iHZlyqgh0IyRkMCM5r0Yf69/8AdX+ZoAcUBPegoMdTSNnPUUEnHVaAF49TRx60o6dRR+IoAjUfv36/dX+ZpxHzjrTV3ee/T7q/zNOIbcOlADivuaQL7mg7vagbvagAUe5pij9+/J+6v8zT13e1MXd579Pur/M0API5HJoYcdTQd2R0obOO1ABt9zQBx1P50c+1C5welADVH79+T90fzNOI56mmKD579Puj+Zp5DZHSgAYcHk0beOpoOcdqX5vagBqj5RyaaF/0h+T91f5mnru29qYN32h+n3R/M0AOI+ZeTSuvB5NId25elK27HagA2+5oC9OT+dL83tSDd7UAMUfv35P3V/maew6daYobz36fdX+ZpzbuOlAAy/L3pdvuaRt2ztS/N7UAIo46mmqP378n7q/zNPXOO1MXd579Pur/ADNADiPnHJpWHHU0HO4dKGzjtQAAe5pEHHU075vakTdjtQAwD9+/X7q/zNPI5HWmAN579Pur/M08htw6UAIy/KeTTse5pDu2npS8+1ADVXjqaaq/6Q/J+6v8zT13Y7Uxc/aH6fdX+ZoAcR8y8mhl46mg7ty9KVt2O1ABt9zSBeOp/OnfN7UnzY/hoAYo/fvyfur/ADNPx8w5NMXd578j7q/zNPwdw5FAAV9zQB7mghvUUAN6igBFXjqaYq/v35P3V/makXOO1MXd579Pur/M0AOK/MvJodflPJpTnK9KGztPSgCO6/49Jv8AcP8AKmx/6pPpTrr/AI9Jv9w/ypsf+qT6UAPooooA/OOiiigD9HyeV4oc8dKU9RQ3TrQAZ9qRTx0p1IvSgCMH9+/+6v8AM07PzCkH+vf/AHV/maeTyKAA9KQ9KWkPQ0ACdBTR/r3/AN1f5mnp0FMH+vf/AHV/maAFP3lrm9Q8a6DaXs9mLi6vLqBtk0WnWM960Tf3X8lG2n2ODSeO7m6Frpel2E721xrF6tj56HDxx+XJLKVPZvLicA9iQe1b2l6faaVYQ2WnW8dtawrtSKMYCj/PegDnf+E80n/ny8S/+E5qH/xij/hPNJ/58vEv/hOah/8AGK6yigDkR470jzGP2LxJ0H/Muah7/wDTCnf8J3pH/Pl4l/8ACc1D/wCMV1lFAHJ/8J5pP/Pl4l/8JzUP/jFZ3iLxJ4d8QaFf6TqWn+JJLS8haGRf+Ec1DOCMZH7jgjqD2IrvaKAPnb9njR9N+HGl6q+qWmvy6teXDL5kfh3UCBAhIQD9xxu5Y/UA8ivXB480nzGP2LxJ0H/Muah7/wDTCutooA5P/hPNI/58vEn/AITmof8Axil/4TzSP+fLxL/4Tmof/GK6uigDlP8AhPNI/wCfLxL/AOE5qH/xij/hPNI/58vEv/hOah/8Yrq6M0Ach/wnujJKzzQa9BFtAMk+g30SLjPVmhAA56k10mnX9pqlpBe6dcw3VpMu6OaFw6OPUEVbrjrm3Tw9440yWwAhs9fklt7mBR8huViaVJgOzFIpFbH3vlJ+7QB17HjpQDx0pWPHSgHjpQAinjoaYrfv34P3V/makXpTF/17/wC6v8zQA4n5hwaHOB0NKfvCh+lACZ5HHahTx0pc9KFOR0oAjU/v3/3R/M05m5FIv+vf/dH8zTjjIoAGPynilzx0NB6UtADVPyjimA/6Q/H8I/makX7tMH+vf/dH8zQA4n5l4oc/L0pT95aG+7QAZ9qQHgcU6kFAEan9+/H8K/zNPY9OKap/fv8A7q/zNPY9OKAGsfk6UufbtQx+XpS59qAEU/L0pin9+/H8K/zNSL0pg/17/wC6v8zQA4n5xxSseOlB+8KG6UAANIh4p1IhyKAGD/j4f/dX+ZpxPzCmj/j4f/dX+Zp5PzCgBGPynilz7UN900tADVPHSmqf9Ifj+Ff5mnr0pi/8fD/7q/zNADifmXrQ5+XoaD95aV/u0AGfY0meOhp1IOlAEan9+/8Aur/M0/PzDimqf37/AO6v8zTyeRQAhPtQD7UpPtQDQAinjpTFP79+D91f5mpF6Uxf9e/+6v8AM0AOJ+ZeKHPynilPVaG+7QBFd/8AHpN/uH+VNh/1SfSnXhH2Sb/cP8qbDzEmPSgB9FFFAH5x0UUUAfo6YYsj92n/AHyKRoYsf6tP++RTyOV5NDjjqaAE8mL/AJ5p/wB8imrDFj/Vp/3yKkx7mkUcdTQBEIYvtD/u0+6v8I9TTjDFuH7tP++RQB/pD8n7q/zNPI+YcmgBhhi/55p/3yKUwxY/1af98inEe5oxx1NAEaRRY/1ceP8AdFNEUXnv+7T7q/wj3qVBx1NNA/fvyfur/WgDmPF6KviPwLtVV/4nMnQY/wCYde11Es8MLwpNLHG8z+XGrMAXbBbavqcKxwOwJ7VzHjH/AJGLwL/2GpP/AE3Xlc98UpLtPEPh46PDe3moLLI32SK6WFJD9luvLAZwQjsd43DHAOc4TANK56TFLHKGMUiOFYoSpBww4IPuKfXgngG3j/t7TNWu/A8iak8VxPFcRW9hEYGBCv5zLL5ssgMjIzMEOf8AlkGyRdl8ZeILPQ7W6Gvx3EmqaRHqhllt4vL09zPCm1QoGYiJXGHJb90fmznBr/Xz/wAmS3bc9uoryLWfEPiLTrx9DtL7UNTf+1Y7Q3sEdol2qNatMUXzAkBcFQMkD5W6FgCUtNa8Uava6bAdafTZV07UJp5rdLSeSSSCdI4y2BJGCQTvVTgNkDbjg6X/AK2uN6f152PXqZNLHCm+aRI0yF3MQBkkAD6kkD6mvJo9d1H+z9Sv4J0tby/bSo5LoIpFv56ojOFbjI3nGcjOMg9Ky7uZ7fR/EmmCXUtVuW11X86CC6UyiNbdmDzWcLmJ/lxwq5IOAvZJtt/11X+dxKSaTXX/ACf+R7hUcs8MLwpNLHG8z+XErMAXbBbavqcKxwOwJ7V4x4Ymln1/TFudJ1u1ikuliDzeI9cBDbHkH7q6hiWUfuzkZPHUevX+Lb6ebxBaT2GZrbw6xu79Y13Fi6FPLAHJZYneTaBn7n94VVhnTa54k0LQGhXXda0zTGmBMYvLqOHeBjO3cRnGR09azLD4ieDL+aOGz8WaDLNJJ5McS38W933bcKu7JyemOvBGQRXLfGbXDb6LpBs9QFrZXUnnfao7yKBJQF+VRIb21bB3bvkZs7eeOvnXwq8Q3CeLdKhtr241ETXlykltBqiTfIfNO8o2qTDaDhifLyeodiQXla3B6K59L1Tt9SsLiNZIL22ljaVoFZJVYGRSQyAg/eBVgR1BB9K+cvEel2cXxEvZX0HTXglldElvPANzJCCQSUi8tv8ASJSyAl3XGC7IwGVPaapqk89v4QME2r6fp5ia3m+3aLPBNC52IA0kShbd23eWH2bQrOytkLl9hdbHsUcscjyJHIjPE211VgShwDg+hwQfoRXL+NAG8Q+BQQCP7Zk6/wDYOvK808CWF9b+KYbjULCQHeftd2PFl7OzlZ3hjASTajxh1bCOWJVh1bKn0zxjz4i8CH/qMyf+m68oWquPrY6byYv+eaf980GGP/nmn/fNO2+5/Ojb7n86AGLDFj/VJ/3yKasMXnv+7T7q/wAI9TUqqcdT+dMVf378n7q9/c0ABhiyP3Sf98ihoYsf6tP++RTipyOT+dKw46mgBohiwP3af98ikWGLb/q0/wC+RUgHA5NIo+XqaAIlhi89/wB2n3V/hHqacYYtw/dp/wB8ilUfv35P3V/macR8w5NADGhi2n92n/fIpfJi/wCeaf8AfIpzD5TyaUj3NADFhix/q0/75FMWGLz3/dp91f4R6mpVHHU0xR/pD8n7q/zNAAYYty/u0/75FDwxbf8AVp/3yKeR8y8mhx8vU0AJ5MX/ADzT/vkUghiwP3af98in49zSAcdTQBEsMXnv+7T7q/wj1NOMMW4fu0/75FKB+/fk/dX+ZpxHI5NADGhj2f6tP++RS+TF/wA80/75FOYfJ1NLj3NAEaQx7f8AVp/3yKYsMfnv+7T7q/wj3qZBx1NMUfv35P3V/rQAGGPcv7tP++RQ8MeP9Wn/AHyKeR8y8mhhx1NADfJj/wCeaf8AfIpEhjx/q0/75FSY6cmkQcdTQBCsMfnv+7T7o/hHvTzDHlf3af8AfIoUfv35P3R/WnkcryaAGNDFtP7tP++RS+TF/wA80/75FPI+U8mlx9aAIlhix/q0/wC+RTFhi+0P+7T7q/wj1NTqOOppij/SH5P3V/maAGmGLcv7pP8AvkUrwxbT+7T/AL5FPI+ZeTQw+XqaAG+TF/zyT/vkUghix/qk/wC+RUmPc0AcdTQBCIYvPf8Adp91f4R6mnGGLI/dp/3yKUD9+/J+6v8AM04jkcmgBjQxbP8AVp/3yKXyYs/6tP8AvkU5h8vU0uPc0ARrDFt/1af98imLDH57/u0+6v8ACPU1Mo+XqaYo/fvyfur/ADNAAYY9y/u0/wC+RQ8Me0/u0/75FPI+ZeTQ4+U8mgCG5iRbWbCAfIf5UsAIhXtxS3f/AB6TdfuH+VJAB5SfSgB1FFFAH5x0UUUAfo+d2V6Uj7sdqUtyODQzcdDQAvze1NXdjtTt3saQNx0NADBu+0P0+6v8zTzu3DpTFb/SH4P3V/maeW5HBoADu9qDux2oLexoLcdDQAITjpTAT578fwr/ADNPQjHSmjHnv/ur/WgDmPGP/IxeBf8AsNSf+m68roLvT7a8ns5bmLfJZymeA7iNjlGQnjr8rsOfWuf8Y/8AIxeBf+w1J/6bryuqoAzYNFs4tbm1VftLXksflnzLqV40X5chI2Yomdq52gZxzVK68I6JLaX1vbafa2QvpkuLp7SBI3ndXDguQvzEkck56mugFFAGOnhnQk0M6Kui6YNHJybEWsfkE53Z8vG3rz0681jtrXhbTNSXSvsrQSWkT2qlNKmEESCLzWiWUR+WBsUHYG7DjOK6+vIfG1lJ/b2r7bl4UdZJPtEShhGxtHVYySCA5xu5GMY5yVBmUnFN+TBJPc9BtV8P34vNMtraynjaBI7mAW4MZjKfJG4xt+4R8h52kcYIq1o0WkWUlxpukW9raG12eZbwQiIICuEOAACMLgEcfKR/CQPLtNiC+EdX0abXnv57qMwW9tcQWptpPNkC7wIY0LkOxSQM2dwbIG4E2Lz4USS2U8cNl8PI5WQhHh8KGJ1JHBWT7Q2w+jbTjrg9KtrUSOwOl6BpusXF/Lc6k91EylvP1C6niiaZig2IzsiE7iPlAKhuwPLtJ1nwboFhd2FjrWi2tvprH7WrX8ZaF2bBaZmYtvZics5yWJySa8t+J2ntqGpaxp+oQ6jeyfbbSW0tVl0yVhG7KhdIZecEhk3ON3yqASjSAbNlLBBpOtNKNXsjbb389bFC0Tx3bmOCIvE8EjszDAjDEMMZ+6Ar6DZ0Fp4w+GsVvqdhZ+KtEtYJ5GaZYdWEKqzgFjEwcbM5yTGR8xY/eJNdnpWkafYafbW1nGzQQlpInlleZwzbsv5jksWO9vmzk7jzXmIl1y/vDBYa74t1zTZ7OGYTWC6MyDzC4ZWMsSbhhf4Qe+fSvXII/Khjj3FtihdxABOO/AA/ICgRzsPgfQIr2G7W1naWMliHvJnSVihQvKjOVlfadu9wzYwM8DEi+DdCVY1WyIWHP2cCeQfZcjBEHzfueOP3e3jjpXQ0UDMK88KaNdXGnyvaMn2AIsEcM0kUQCMGRWjRgjhSoKhgQCOMVS8Y8eIvAn/YZk/9N15XVVyvjL/kYvAn/YZk/wDTdeUkrAdSd3tSDd7UpPsaAeOhpgIu7HamLu+0P0+6v8zT1PsaYp/0h+D91f5mgB/zZHSht2O1BPI4NDHjoaAAbsDpQudvagNwODQrfL0NADVz579Pur/M047tw6UxW/fvwfur/M08t8w4NAA27aelB3e1DN8p4NLu9jQAi7sdqYu77Q/T7q/zNPVuOhpit+/fg/dX+ZoAcc7l6Ur5welBb5l4NDNweDQAvPtSDdgdKXd7GkDcdDQA0Z89+n3V/macc5HSmBv378H7q/zNOLcjg0AK2dnal59qazfL0NLu9jQALnHamLnz36fdX+tOVuOhpqt+/fg/dX+ZoAec7l6UNnHagt8y8Ghm46GgBefakTdjtS7vY01G46GgBq7vPfp90f1p5zlelMVv378H7o/rTy3I4NAAd209KXn2pC3yng0u72NACLux2pi7vtD9Pur/ADNPVuOhpit/pD8H7q/zNADjncvSlbdg9KQt8y8GlZuOhoAX5vakG7Hajd7GgNx0NADRnz36fdX+Zpx3ZHSmA/v34P3V/maeW5HBoAGzt7UvOe1IzfL0NLu9jQA1d23tTF3ee/T7q/zNPVvl6Gmq379+D91f5mgBx3bl6UPu2npQW5Xg0rN8p4NAEd1/x6T/AO4f5UkA/dL9KW6/49J/9w/ypLf/AFS/SgB1FFFAH5x0UUUAfpAeoobpTDBFkfuk/wC+RSNBFj/VJ/3yKAJaRelM8iL/AJ5J/wB8ihYIsf6pP++RQAL/AMfD/wC6v8zTz1FQLDF9of8AdJ91f4R6mnmGLI/dJ/3yKAJTRUZgi/55J/3yKPIi/wCeSf8AfIoAevSmD/Xv/ur/AFo8iL/nkn/fIpiwx+e37pfur2HvQBznjL/kYvAv/YZk/wDTfeV1Vcj4/QWMWi62sJaHRtQF3cBFyVhaGWCR/oizFz7Ia6yGRJoklidXjdQyspyGB6EHvQA6iiigAqsbO1a3ngNvCYJ93mxlBtk3fe3DvnvnrVmigCvFZWsUFvDFbwpDbgCGNUAWLAwNo7YHHHarFFJQBUi02xin86Kzt0m8xpt6xgNvYYZs/wB4jgnqRT/sdrhF+zw4SQzKNg+VySSw9GJJ568n1qxRSsgOcv8AwN4T1G9lvNQ8L6FdXcp3STz6fFJI59SxXJNdBBFHBDHDBGkcUahERAFVVHAAA6Cn0tMAooooAK5Xxl/yMXgT/sMyf+m68rqq5DXXTVvHfh/TrcCX+yXk1O7I5EW6CSCJG92852A9IyfTIB19FR+RD/zyj/75FBgh/wCeUf8A3yKAHimj/Xv/ALq/zNNWGP8A55J+VMEMfnv+6T7q9vc0AT9xQ3So/JjyP3SflQ8MeP8AVJ+VAEtIv3aZ5MX/ADyT/vkUggi2/wCqT/vkUAKv+vf/AHV/maefvCoVhi89/wB0n3V/hHqacYIsj90n/fIoAkf7ppaieCLaf3Sf98il8iL/AJ5J/wB8igB69KYP9e/+6v8AM0iwRY/1Sf8AfIpqwxee/wC6T7q/wj1NAEx+8tDdDUZgi3L+6T/vkUNDFt/1Sf8AfIoAloHSo/Ji/wCeSf8AfIoEEWP9Un/fIoAUf69/90fzNOPUVCIYvPf90n3V/hHqacYYsj90n/fIoAkb7ppaiaGLb/qk/wC+RS+TF/zyT/vkUAPXpTF/17/7q/zNIsEWP9Un/fIpiwRee/7pPur/AAj1NAE5+8tDdKjMEW5f3Sf98ihoIsf6pP8AvkUAS01OlN8iL/nkn/fIpEgi2/6pP++RQAo/1z/7q/1p5+8KgWCLzn/dJ91f4R708wRbh+6T/vkUASN900tRNBFtP7pP++RS+RF/zyT/AL5FAD16Uwf8fD/7q/zNAgix/qk/75FRiCLz3/dJ91f4R6mgCc/eWhulRmCLcP3Sf98ilaCLH+qT/vkUASUDpUfkRf8APJP++RQIIsf6pP8AvkUAKP8AXv8A7q/zNOPUVCIIvPf90n3V/hHqaUwQ5H7pP++RQBK33TS1E0EW3/VJ/wB8il8iLP8Aqk/75FAD16Uxf9e/+6v8zSLBFj/VJ/3yKYsEXnv+6T7q/wAI9TQBOfvLQ3SozBFkfuk/75FDQRY/1Sf98igBLv8A485v9xv5UkJ/dLz29KS6ijWzm2og+Rug9qWDiJcYHFADqKD1ooA/OTsKD2pD0H1oPb6UAfo+V5HJ/Ohl46n86DuyOlDbsdqAFx7n86RV46n86X5vakXdjtQAxV/0h+T91f5mnleR1pi5+0P0+6v8zTznI6UABX3NG3jqaDn2pfmx2oAAOOpqNR/pD8n7q/1p43e1MUN578j7q/1oAe43YHbuPWuVPguO0d/7A1vWNDhYljbWbxPCpJydkc0cioPZAo9q6v5vakbOOMUAcsPC+r/9D34k/wC/Gnf/ACLS/wDCL6v/AND34k/78ad/8i10+Gx2pVDe1AHKf8Izq+9l/wCE78ScAH/Uad3z/wBOvtTv+EX1f/oe/En/AH407/5Frpsf6Q/+6v8AM07DZoA5f/hF9X/6HvxJ/wB+NO/+RaX/AIRfV/8Aoe/En/fjTv8A5Frp33UfNigDmP8AhF9X/wCh78Sf9+NO/wDkWmf8Izq+9l/4TvxJwAf9Rp3fP/Tr7V1a7u9Mx+/f/dX+ZoA5j/hF9X/6HvxJ/wB+NO/+RaX/AIRfV/8Aoe/En/fjTv8A5FrqvmzSPuxxQBy//CL6v/0PfiT/AL8ad/8AItH/AAi+r/8AQ9+JP+/Gnf8AyLXTHdSpu70Acp/wi2pyTNHceNvEksQUEpssoyc5/iS3Vh07EVt6LotjoloLbTYTGhYySO7mSSVz1d3YlnY4HJJPFX1/4+ZP9xf5tTjuzxQApH1oA+tIS3oKBu9BQAAe5pgH79+T91f5mnjd7UwbvPfp91f5mgB+ORyaGHHU0HdkdKDux2oAAvHU0AfL3o+bHahc7e1ADVH79+T91f5mnMPmHWmLn7Q/T7q/zNPbO4dKABx8p5NKV9zTXztPSnfN7UAIo470wD9+/J+6v8zT13Y7Uxd3nv0+6v8AM0API+ZeTQw46mkOdy9KVt2O1AC49zSAcDk0vze1IN2O1ADAv79+T91f5mnFeRyaQZ89+n3V/macc5HSgAZfl6mjbz1NDZ2dqXn2oARRx3pir+/fk/dX+tPXdjtTF3ee/T7q/wBaAHkfMvJoYcd6TncvSlbdjtQAuOnJpEHHU0fN7UibsdqAGgfv35P3V/rTyPmXk0wbvPfp91f6087tw6UADD5T1pce5pGztPSl59qAEUcd6YF/0h+v3V/maeu7HamDd579Pur/ADNADyPmXk0rDjqaQ53L0obOO1AC49zSBeOppecdqQZx2oAYF/fvyfur/M04ryOTSDPnv0+6v8zTjncOlACMPl6ml289TQ2dh6UvPtQAir8vU0xV/fvyfur39zT13Y7Uxd3nv0+6v8zQA8jleTQw+XqaDuyvSht209KAI7v/AI85v9xv5Gmx/wCqX6Clu/8Ajzm/3G/kaI/9Uv0FADqKKKAPzi7Dmg9uaOw4oPbigD9ICeVoY8U49RQelACZ4pFPFOoHSgCJT/pD/wC6v8zTy3Ipq/8AHy/+6v8ANqceo/GgALe1Lu9jQ1FACjpUa/69/wDdX+tSL0qNf9e/+6v9aAHk4I4oJ68UpooAaDQh4pRSJ0oAav8Ar3/3V/maeScimr/r3/3V/maceooAR+lOPSmv0pxoAQHNRhv9If8A3V/makWox/x8P/ur/M0APLcjilLdeKU9RRQAh6ULQaFoAjU/6S/+4v8ANqeW5FMX/j5f/cX+bU5uq0AKT8tLnrQelL60ANXpTB/r3/3V/maetNH+vf8A3V/maAHE/MOKGbjpSn7wpTQAgPFIp+SnUDpQBErfv3/3F/maczYIpq/8fD/7i/zNPb7woAHPymlJ4of7ppaAEU5FMB/fv/ur/M08dKaP+Ph/91f5mgAY/OtDng8U4/eFDdKAAH2pAeBxTqB0FAEYP79/91f5mnEnIpB/r3/3V/mad/EKAEY/JS5ob7ppaAGqflFNB/fP/ur/AFp6fdpi/wCvf/dX+ZoAcT8y0rHjpQfvLSnpQAmenFNQ/L0p9In3aAI1P79/91f5mpD1WmL/AK9/91f5mnnqKAEY/KaUn2ob7ppaAEU8UwH9+/8Aur/M09elMH+vf/dX+ZoAcT8y0MeKU/eFKelACZpAfl6U6helAEan9+/+6v8AM04k5FNX/Xv/ALq/zNP/AIhQAjH5KXNDfdNLQA1T8tMB/fv/ALq/zNSL0pi/69/91f5mgBxPzLQ5+U0p6ihulAEV3/x6Tf7jfyoj/wBSv0FF3/x6Tf7jfyoj/wBSv0FAC0UUUAfnGeg+tB7fSg9B9aD2+lAH/9n7LkULAAAAAAr9YNpRSNaJK+Be0Mo/js8=;" vertex="1" parent="1">
          <mxGeometry x="204" y="180" width="623" height="489" as="geometry" />
        </mxCell>
      </root>
    </mxGraphModel>
  </diagram>
</mxfile>
